<?xml version="1.0" encoding="UTF-8" standalone="no"?>
<!-- Created with Inkscape (http://www.inkscape.org/) -->

<svg
   width="3840"
   height="2160"
   viewBox="0 0 3840 2160"
   version="1.1"
   id="svg1"
   xml:space="preserve"
   xmlns:xlink="http://www.w3.org/1999/xlink"
   xmlns="http://www.w3.org/2000/svg"
   xmlns:svg="http://www.w3.org/2000/svg"><defs
     id="defs1"><rect
       x="700"
       y="28"
       width="2584"
       height="612"
       id="rect243" /><linearGradient
       id="linearGradient233"><stop
         style="stop-color:#d40000;stop-opacity:1;"
         offset="0"
         id="stop236" /><stop
         style="stop-color:#0ed920;stop-opacity:1;"
         offset="0.30148092"
         id="stop237" /><stop
         style="stop-color:#0900ff;stop-opacity:1;"
         offset="1"
         id="stop238" /></linearGradient><linearGradient
       xlink:href="#linearGradient233"
       id="linearGradient234"
       x1="2066.3196"
       y1="687.88104"
       x2="2639.1077"
       y2="1488.1785"
       gradientUnits="userSpaceOnUse"
       gradientTransform="matrix(0.12127294,0,0,0.12127294,135.40714,177.43602)" /></defs><rect
     style="fill:#222222;fill-opacity:1"
     id="rect238"
     width="3918.5129"
     height="2275.093"
     x="-19.191601"
     y="-53.227905" /><g
     id="g238"
     transform="matrix(4.0573266,0,0,4.0573266,268.11558,76.888417)"><rect
       style="fill:#000000;fill-opacity:1;stroke-width:0.276749"
       id="rect239"
       width="239.70509"
       height="272.83029"
       x="255.35875"
       y="160.01682"
       ry="0" /><path
       style="fill:#7e7979;fill-opacity:1"
       d="M 485.517,61.793 H 26.483 C 11.857,61.793 0,73.65 0,88.276 v 335.448 c 0,14.626 11.857,26.483 26.483,26.483 H 485.517 C 500.143,450.207 512,438.35 512,423.724 V 88.276 C 512,73.65 500.143,61.793 485.517,61.793 Z m -44.138,17.655 h 8.828 c 4.875,0 8.828,3.953 8.828,8.828 0,4.875 -3.953,8.828 -8.828,8.828 h -8.828 c -4.875,0 -8.828,-3.953 -8.828,-8.828 0.001,-4.875 3.953,-8.828 8.828,-8.828 z m -247.172,0 h 211.862 c 4.875,0 8.828,3.953 8.828,8.828 0,4.875 -3.953,8.828 -8.828,8.828 H 194.207 c -4.875,0 -8.828,-3.953 -8.828,-8.828 0,-4.875 3.953,-8.828 8.828,-8.828 z m -44.138,0 h 8.828 c 4.875,0 8.828,3.953 8.828,8.828 0,4.875 -3.953,8.828 -8.828,8.828 h -8.828 c -4.875,0 -8.828,-3.953 -8.828,-8.828 0,-4.875 3.953,-8.828 8.828,-8.828 z m -35.31,0 h 8.828 c 4.875,0 8.828,3.953 8.828,8.828 0,4.875 -3.953,8.828 -8.828,8.828 h -8.828 c -4.875,0 -8.828,-3.953 -8.828,-8.828 0,-4.875 3.953,-8.828 8.828,-8.828 z m -35.311,0 c 4.875,0 8.828,3.953 8.828,8.828 0,4.875 -3.953,8.828 -8.828,8.828 -4.875,0 -8.828,-3.953 -8.828,-8.828 10e-4,-4.875 3.953,-8.828 8.828,-8.828 z m -26.482,0 c 4.875,0 8.828,3.953 8.828,8.828 0,4.875 -3.953,8.828 -8.828,8.828 -4.875,0 -8.828,-3.953 -8.828,-8.828 0,-4.875 3.952,-8.828 8.828,-8.828 z m -26.483,0 c 4.875,0 8.828,3.953 8.828,8.828 0,4.875 -3.953,8.828 -8.828,8.828 -4.875,0 -8.828,-3.953 -8.828,-8.828 0,-4.875 3.953,-8.828 8.828,-8.828 z m 467.862,88.276 v 256 c 0,4.875 -3.953,8.828 -8.828,8.828 H 256 26.483 c -4.875,0 -8.828,-3.953 -8.828,-8.828 v -256 -44.138 c 0,-4.875 3.953,-8.828 8.828,-8.828 H 256 485.517 c 4.875,0 8.828,3.953 8.828,8.828 z m -8.828,-70.621 h -8.828 c -4.875,0 -8.828,-3.953 -8.828,-8.828 0,-4.875 3.953,-8.828 8.828,-8.828 h 8.828 c 4.875,0 8.828,3.953 8.828,8.828 0,4.876 -3.953,8.828 -8.828,8.828 z"
       id="path1-8" /><circle
       style="fill:#454545;fill-opacity:1"
       cx="26.483"
       cy="88.276001"
       r="8.8280001"
       id="circle2" /><circle
       style="fill:#454545;fill-opacity:1"
       cx="52.966"
       cy="88.276001"
       r="8.8280001"
       id="circle3" /><circle
       style="fill:#454545;fill-opacity:1"
       cx="79.447998"
       cy="88.276001"
       r="8.8280001"
       id="circle4" /><g
       id="g8"
       style="fill:#454545;fill-opacity:1">
	<path
   style="fill:#454545;fill-opacity:1"
   d="m 114.759,97.103 h 8.828 c 4.875,0 8.828,-3.953 8.828,-8.828 0,-4.875 -3.953,-8.828 -8.828,-8.828 h -8.828 c -4.875,0 -8.828,3.953 -8.828,8.828 0,4.876 3.953,8.828 8.828,8.828 z"
   id="path4" />
	<path
   style="fill:#454545;fill-opacity:1"
   d="m 150.069,97.103 h 8.828 c 4.875,0 8.828,-3.953 8.828,-8.828 0,-4.875 -3.953,-8.828 -8.828,-8.828 h -8.828 c -4.875,0 -8.828,3.953 -8.828,8.828 0,4.876 3.953,8.828 8.828,8.828 z"
   id="path5" />
	<path
   style="fill:#454545;fill-opacity:1"
   d="m 441.379,97.103 h 8.828 c 4.875,0 8.828,-3.953 8.828,-8.828 0,-4.875 -3.953,-8.828 -8.828,-8.828 h -8.828 c -4.875,0 -8.828,3.953 -8.828,8.828 0.001,4.876 3.953,8.828 8.828,8.828 z"
   id="path6" />
	<path
   style="fill:#454545;fill-opacity:1"
   d="m 485.517,79.448 h -8.828 c -4.875,0 -8.828,3.953 -8.828,8.828 0,4.875 3.953,8.828 8.828,8.828 h 8.828 c 4.875,0 8.828,-3.953 8.828,-8.828 0,-4.875 -3.953,-8.828 -8.828,-8.828 z"
   id="path7" />
	<path
   style="fill:#454545;fill-opacity:1"
   d="m 194.207,97.103 h 211.862 c 4.875,0 8.828,-3.953 8.828,-8.828 0,-4.875 -3.953,-8.828 -8.828,-8.828 H 194.207 c -4.875,0 -8.828,3.953 -8.828,8.828 0,4.876 3.953,8.828 8.828,8.828 z"
   id="path8" />
</g><path
       style="fill:#ff6469"
       d="M 485.517,114.759 H 256 v 52.966 h 238.345 v -44.138 c 0,-4.876 -3.953,-8.828 -8.828,-8.828 z m -167.724,35.31 h -35.31 c -4.875,0 -8.828,-3.953 -8.828,-8.828 0,-4.875 3.953,-8.828 8.828,-8.828 h 35.31 c 4.875,0 8.828,3.953 8.828,8.828 0,4.875 -3.953,8.828 -8.828,8.828 z m 70.621,0 h -35.31 c -4.875,0 -8.828,-3.953 -8.828,-8.828 0,-4.875 3.953,-8.828 8.828,-8.828 h 35.31 c 4.875,0 8.828,3.953 8.828,8.828 0,4.875 -3.953,8.828 -8.828,8.828 z m 70.62,0 h -35.31 c -4.875,0 -8.828,-3.953 -8.828,-8.828 0,-4.875 3.953,-8.828 8.828,-8.828 h 35.31 c 4.875,0 8.828,3.953 8.828,8.828 0,4.875 -3.952,8.828 -8.828,8.828 z"
       id="path9" /><g
       id="g12">
	<path
   style="fill:#d2555f"
   d="m 317.793,132.414 h -35.31 c -4.875,0 -8.828,3.953 -8.828,8.828 0,4.875 3.953,8.828 8.828,8.828 h 35.31 c 4.875,0 8.828,-3.953 8.828,-8.828 0,-4.875 -3.953,-8.828 -8.828,-8.828 z"
   id="path10" />
	<path
   style="fill:#d2555f"
   d="m 388.414,132.414 h -35.31 c -4.875,0 -8.828,3.953 -8.828,8.828 0,4.875 3.953,8.828 8.828,8.828 h 35.31 c 4.875,0 8.828,-3.953 8.828,-8.828 0,-4.875 -3.953,-8.828 -8.828,-8.828 z"
   id="path11" />
	<path
   style="fill:#d2555f"
   d="m 459.034,132.414 h -35.31 c -4.875,0 -8.828,3.953 -8.828,8.828 0,4.875 3.953,8.828 8.828,8.828 h 35.31 c 4.875,0 8.828,-3.953 8.828,-8.828 0,-4.875 -3.952,-8.828 -8.828,-8.828 z"
   id="path12" />
</g><path
       style="fill:#3a3a3a;fill-opacity:1"
       d="M 256,114.759 H 26.483 c -4.875,0 -8.828,3.953 -8.828,8.828 v 44.138 256 c 0,4.875 3.953,8.828 8.828,8.828 H 256 V 167.724 Z M 88.276,141.241 h 141.241 c 4.875,0 8.828,3.953 8.828,8.828 0,4.875 -3.953,8.828 -8.828,8.828 H 88.276 c -4.875,0 -8.828,-3.953 -8.828,-8.828 0,-4.875 3.953,-8.828 8.828,-8.828 z m -44.138,0 h 8.828 c 4.875,0 8.828,3.953 8.828,8.828 0,4.875 -3.953,8.828 -8.828,8.828 h -8.828 c -4.875,0 -8.828,-3.953 -8.828,-8.828 0,-4.875 3.953,-8.828 8.828,-8.828 z m 88.276,52.966 h -26.483 c -4.875,0 -8.828,-3.953 -8.828,-8.828 0,-4.875 3.953,-8.828 8.828,-8.828 h 26.483 c 4.875,0 8.828,3.953 8.828,8.828 -10e-4,4.875 -3.953,8.828 -8.828,8.828 z m 8.827,26.483 c 0,4.875 -3.953,8.828 -8.828,8.828 H 105.93 c -4.875,0 -8.828,-3.953 -8.828,-8.828 0,-4.875 3.953,-8.828 8.828,-8.828 h 26.483 c 4.876,0 8.828,3.953 8.828,8.828 z m -97.103,61.793 h 8.828 c 4.875,0 8.828,3.953 8.828,8.828 0,4.875 -3.953,8.828 -8.828,8.828 h -8.828 c -4.875,0 -8.828,-3.953 -8.828,-8.828 0,-4.875 3.953,-8.828 8.828,-8.828 z M 35.31,256 c 0,-4.875 3.953,-8.828 8.828,-8.828 h 8.828 c 4.875,0 8.828,3.953 8.828,8.828 0,4.875 -3.953,8.828 -8.828,8.828 h -8.828 c -4.875,0 -8.828,-3.953 -8.828,-8.828 z m 26.483,61.793 h 8.828 c 4.875,0 8.828,3.953 8.828,8.828 0,4.875 -3.953,8.828 -8.828,8.828 h -8.828 c -4.875,0 -8.828,-3.953 -8.828,-8.828 0,-4.875 3.953,-8.828 8.828,-8.828 z m 8.828,-88.276 h -8.828 c -4.875,0 -8.828,-3.953 -8.828,-8.828 0,-4.875 3.953,-8.828 8.828,-8.828 h 8.828 c 4.875,0 8.828,3.953 8.828,8.828 0,4.875 -3.953,8.828 -8.828,8.828 z m 0,-35.31 h -8.828 c -4.875,0 -8.828,-3.953 -8.828,-8.828 0,-4.875 3.953,-8.828 8.828,-8.828 h 8.828 c 4.875,0 8.828,3.953 8.828,8.828 -0.001,4.875 -3.953,8.828 -8.828,8.828 z M 52.966,406.069 h -8.828 c -4.875,0 -8.828,-3.953 -8.828,-8.828 0,-4.875 3.953,-8.828 8.828,-8.828 h 8.828 c 4.875,0 8.828,3.953 8.828,8.828 -10e-4,4.875 -3.953,8.828 -8.828,8.828 z m 17.655,-35.31 h -8.828 c -4.875,0 -8.828,-3.953 -8.828,-8.828 0,-4.875 3.953,-8.828 8.828,-8.828 h 8.828 c 4.875,0 8.828,3.953 8.828,8.828 0,4.875 -3.953,8.828 -8.828,8.828 z m 158.896,35.31 H 88.276 c -4.875,0 -8.828,-3.953 -8.828,-8.828 0,-4.875 3.953,-8.828 8.828,-8.828 h 141.241 c 4.875,0 8.828,3.953 8.828,8.828 0,4.875 -3.953,8.828 -8.828,8.828 z M 105.931,353.103 h 26.483 c 4.875,0 8.828,3.953 8.828,8.828 0,4.875 -3.953,8.828 -8.828,8.828 h -26.483 c -4.875,0 -8.828,-3.953 -8.828,-8.828 0,-4.875 3.953,-8.828 8.828,-8.828 z m -8.828,-26.482 c 0,-4.875 3.953,-8.828 8.828,-8.828 h 26.483 c 4.875,0 8.828,3.953 8.828,8.828 0,4.875 -3.953,8.828 -8.828,8.828 h -26.483 c -4.875,-0.001 -8.828,-3.953 -8.828,-8.828 z m 132.414,44.138 h -61.793 c -4.875,0 -8.828,-3.953 -8.828,-8.828 0,-4.875 3.953,-8.828 8.828,-8.828 h 61.793 c 4.875,0 8.828,3.953 8.828,8.828 0,4.875 -3.953,8.828 -8.828,8.828 z m 0,-35.311 h -61.793 c -4.875,0 -8.828,-3.953 -8.828,-8.828 0,-4.875 3.953,-8.828 8.828,-8.828 h 61.793 c 4.875,0 8.828,3.953 8.828,8.828 0,4.875 -3.953,8.828 -8.828,8.828 z m 0,-35.31 H 88.276 c -4.875,0 -8.828,-3.953 -8.828,-8.828 0,-4.875 3.953,-8.828 8.828,-8.828 h 141.241 c 4.875,0 8.828,3.953 8.828,8.828 0,4.875 -3.953,8.828 -8.828,8.828 z m 0,-35.31 H 88.276 c -4.875,0 -8.828,-3.953 -8.828,-8.828 0,-4.875 3.953,-8.828 8.828,-8.828 h 141.241 c 4.875,0 8.828,3.953 8.828,8.828 0,4.875 -3.953,8.828 -8.828,8.828 z m 0,-35.311 h -61.793 c -4.875,0 -8.828,-3.953 -8.828,-8.828 0,-4.875 3.953,-8.828 8.828,-8.828 h 61.793 c 4.875,0 8.828,3.953 8.828,8.828 0,4.875 -3.953,8.828 -8.828,8.828 z m 0,-35.31 h -61.793 c -4.875,0 -8.828,-3.953 -8.828,-8.828 0,-4.875 3.953,-8.828 8.828,-8.828 h 61.793 c 4.875,0 8.828,3.953 8.828,8.828 0,4.875 -3.953,8.828 -8.828,8.828 z"
       id="path19" /><path
       style="fill:#ffe169"
       d="m 88.276,158.897 h 141.241 c 4.875,0 8.828,-3.953 8.828,-8.828 0,-4.875 -3.953,-8.828 -8.828,-8.828 H 88.276 c -4.875,0 -8.828,3.953 -8.828,8.828 0,4.875 3.953,8.828 8.828,8.828 z"
       id="path20" /><g
       id="g22">
	<path
   style="fill:#91e6be"
   d="m 132.414,176.552 h -26.483 c -4.875,0 -8.828,3.953 -8.828,8.828 0,4.875 3.953,8.828 8.828,8.828 h 26.483 c 4.875,0 8.828,-3.953 8.828,-8.828 -10e-4,-4.876 -3.953,-8.828 -8.828,-8.828 z"
   id="path21" />
	<path
   style="fill:#91e6be"
   d="m 132.414,211.862 h -26.483 c -4.875,0 -8.828,3.953 -8.828,8.828 0,4.875 3.953,8.828 8.828,8.828 h 26.483 c 4.875,0 8.828,-3.953 8.828,-8.828 0,-4.875 -3.953,-8.828 -8.828,-8.828 z"
   id="path22" />
</g><path
       style="fill:#ffe169"
       d="M 229.517,247.172 H 88.276 c -4.875,0 -8.828,3.953 -8.828,8.828 0,4.875 3.953,8.828 8.828,8.828 h 141.241 c 4.875,0 8.828,-3.953 8.828,-8.828 0,-4.875 -3.953,-8.828 -8.828,-8.828 z"
       id="path23" /><g
       id="g28">
	<path
   style="fill:#ffffff"
   d="M 229.517,282.483 H 88.276 c -4.875,0 -8.828,3.953 -8.828,8.828 0,4.875 3.953,8.828 8.828,8.828 h 141.241 c 4.875,0 8.828,-3.953 8.828,-8.828 0,-4.875 -3.953,-8.828 -8.828,-8.828 z"
   id="path24" />
	<path
   style="fill:#ffffff"
   d="m 229.517,176.552 h -61.793 c -4.875,0 -8.828,3.953 -8.828,8.828 0,4.875 3.953,8.828 8.828,8.828 h 61.793 c 4.875,0 8.828,-3.953 8.828,-8.828 0,-4.876 -3.953,-8.828 -8.828,-8.828 z"
   id="path25" />
	<path
   style="fill:#ffffff"
   d="m 229.517,211.862 h -61.793 c -4.875,0 -8.828,3.953 -8.828,8.828 0,4.875 3.953,8.828 8.828,8.828 h 61.793 c 4.875,0 8.828,-3.953 8.828,-8.828 0,-4.875 -3.953,-8.828 -8.828,-8.828 z"
   id="path26" />
	<path
   style="fill:#ffffff"
   d="m 229.517,317.793 h -61.793 c -4.875,0 -8.828,3.953 -8.828,8.828 0,4.875 3.953,8.828 8.828,8.828 h 61.793 c 4.875,0 8.828,-3.953 8.828,-8.828 0,-4.875 -3.953,-8.828 -8.828,-8.828 z"
   id="path27" />
	<path
   style="fill:#ffffff"
   d="m 229.517,353.103 h -61.793 c -4.875,0 -8.828,3.953 -8.828,8.828 0,4.875 3.953,8.828 8.828,8.828 h 61.793 c 4.875,0 8.828,-3.953 8.828,-8.828 0,-4.875 -3.953,-8.828 -8.828,-8.828 z"
   id="path28" />
</g><g
       id="g30">
	<path
   style="fill:#91e6be"
   d="m 105.931,335.448 h 26.483 c 4.875,0 8.828,-3.953 8.828,-8.828 0,-4.875 -3.953,-8.828 -8.828,-8.828 h -26.483 c -4.875,0 -8.828,3.953 -8.828,8.828 0,4.875 3.953,8.828 8.828,8.828 z"
   id="path29" />
	<path
   style="fill:#91e6be"
   d="m 105.931,370.759 h 26.483 c 4.875,0 8.828,-3.953 8.828,-8.828 0,-4.875 -3.953,-8.828 -8.828,-8.828 h -26.483 c -4.875,0 -8.828,3.953 -8.828,8.828 0,4.875 3.953,8.828 8.828,8.828 z"
   id="path30" />
</g><path
       style="fill:#ffe169"
       d="M 229.517,388.414 H 88.276 c -4.875,0 -8.828,3.953 -8.828,8.828 0,4.875 3.953,8.828 8.828,8.828 h 141.241 c 4.875,0 8.828,-3.953 8.828,-8.828 0,-4.876 -3.953,-8.828 -8.828,-8.828 z"
       id="path31" /><g
       id="g39">
	<path
   style="fill:#ff6469"
   d="m 44.138,158.897 h 8.828 c 4.875,0 8.828,-3.953 8.828,-8.828 0,-4.875 -3.953,-8.828 -8.828,-8.828 h -8.828 c -4.875,0 -8.828,3.953 -8.828,8.828 0,4.875 3.953,8.828 8.828,8.828 z"
   id="path32" />
	<path
   style="fill:#ff6469"
   d="m 70.621,176.552 h -8.828 c -4.875,0 -8.828,3.953 -8.828,8.828 0,4.875 3.953,8.828 8.828,8.828 h 8.828 c 4.875,0 8.828,-3.953 8.828,-8.828 -0.001,-4.876 -3.953,-8.828 -8.828,-8.828 z"
   id="path33" />
	<path
   style="fill:#ff6469"
   d="m 70.621,211.862 h -8.828 c -4.875,0 -8.828,3.953 -8.828,8.828 0,4.875 3.953,8.828 8.828,8.828 h 8.828 c 4.875,0 8.828,-3.953 8.828,-8.828 0,-4.875 -3.953,-8.828 -8.828,-8.828 z"
   id="path34" />
	<path
   style="fill:#ff6469"
   d="m 44.138,264.828 h 8.828 c 4.875,0 8.828,-3.953 8.828,-8.828 0,-4.875 -3.953,-8.828 -8.828,-8.828 h -8.828 c -4.875,0 -8.828,3.953 -8.828,8.828 0,4.875 3.953,8.828 8.828,8.828 z"
   id="path35" />
	<path
   style="fill:#ff6469"
   d="m 44.138,300.138 h 8.828 c 4.875,0 8.828,-3.953 8.828,-8.828 0,-4.875 -3.953,-8.828 -8.828,-8.828 h -8.828 c -4.875,0 -8.828,3.953 -8.828,8.828 0,4.875 3.953,8.828 8.828,8.828 z"
   id="path36" />
	<path
   style="fill:#ff6469"
   d="m 61.793,335.448 h 8.828 c 4.875,0 8.828,-3.953 8.828,-8.828 0,-4.875 -3.953,-8.828 -8.828,-8.828 h -8.828 c -4.875,0 -8.828,3.953 -8.828,8.828 0,4.875 3.953,8.828 8.828,8.828 z"
   id="path37" />
	<path
   style="fill:#ff6469"
   d="m 70.621,353.103 h -8.828 c -4.875,0 -8.828,3.953 -8.828,8.828 0,4.875 3.953,8.828 8.828,8.828 h 8.828 c 4.875,0 8.828,-3.953 8.828,-8.828 0,-4.875 -3.953,-8.828 -8.828,-8.828 z"
   id="path38" />
	<path
   style="fill:#ff6469"
   d="m 52.966,388.414 h -8.828 c -4.875,0 -8.828,3.953 -8.828,8.828 0,4.875 3.953,8.828 8.828,8.828 h 8.828 c 4.875,0 8.828,-3.953 8.828,-8.828 -10e-4,-4.876 -3.953,-8.828 -8.828,-8.828 z"
   id="path39" />
</g><path
       style="fill:url(#linearGradient234);stroke-width:0.121273"
       d="M 378.71438,222.38553 298.32509,360.87508 H 460.36943 Z"
       id="path1" /></g><g
     style="fill:#ffffff;fill-opacity:1;fill-rule:nonzero"
     id="g239"
     transform="matrix(2.5458918,0,0,2.5458918,2855.2871,113.6107)"><path
       d="M 224.82002,83.679558 138.60004,35.219577 c -6.53998,-3.65998 -14.66,-3.65998 -21.19998,0 L 31.180083,83.679558 C 24.580096,87.379577 20.480102,94.319584 20.480102,101.75956 v 96.92001 c 0,7.44003 4.099994,14.37998 10.699981,18.08 l 86.219977,48.45998 c 3.28003,1.84003 6.94001,2.75999 10.59999,2.75999 3.65998,0 7.32001,-0.92001 10.59999,-2.75999 l 86.21998,-48.45998 c 6.59999,-3.70002 10.69998,-10.63997 10.69998,-18.08 v -96.92001 c 0,-7.439976 -4.09999,-14.379983 -10.69998,-18.080002 z M 128,211.65954 c -33.880013,0 -61.44,-27.55999 -61.44,-61.44 0,-33.88001 27.559987,-61.440001 61.44,-61.440001 19.36,0 37.24001,8.980019 48.86001,24.280011 l -22.43999,12.98002 C 147.68,118.65955 138.10002,114.37959 128,114.37959 c -19.75997,0 -35.84,16.08003 -35.84,35.84 0,19.76003 16.08003,35.84 35.84,35.84 10.10002,0 19.68,-4.28001 26.42002,-11.65998 l 22.43999,12.98002 C 165.24001,202.67962 147.36,211.65964 128,211.65964 Z m 61.44,-56.32 H 179.2 v 10.24 h -10.24 v -10.24 h -10.24 v -10.24 h 10.24 v -10.24 h 10.24 v 10.24 h 10.24 z m 35.84,0 h -10.24 v 10.24 H 204.8 v -10.24 h -10.24 v -10.24 h 10.24 v -10.24 h 10.24 v 10.24 h 10.24 z"
       id="path1-82"
       style="font-family:none;mix-blend-mode:normal;fill:#ffffff;fill-opacity:1;fill-rule:nonzero;stroke:none;stroke-width:5.12;stroke-linecap:butt;stroke-linejoin:miter;stroke-miterlimit:10;stroke-dasharray:none;stroke-dashoffset:0" /></g><g
     style="fill:#ffffff;fill-opacity:1"
     id="g240"
     transform="matrix(38.606266,0,0,36.873175,2568.385,1044.4648)"><polygon
       points="7.56,17.1 3.958,17.1 3.958,21.947 2,21.947 2,10.044 3.958,10.044 3.958,14.792 7.56,14.792 7.56,10.044 9.525,10.044 9.525,21.947 7.56,21.947 "
       style="fill:#ffffff;fill-opacity:1"
       id="polygon1" /><polygon
       points="11.513,10.044 13.472,10.044 13.472,19.773 16.692,19.773 16.692,21.947 11.513,21.947 "
       style="fill:#ffffff;fill-opacity:1"
       id="polygon2" /><path
       d="m 17.462,21.491 v -2.657 a 3.676,3.676 0 0 0 1.146,0.909 2.809,2.809 0 0 0 1.249,0.3 2.05,2.05 0 0 0 0.646,-0.092 1.309,1.309 0 0 0 0.461,-0.252 1.029,1.029 0 0 0 0.276,-0.382 1.231,1.231 0 0 0 0.091,-0.478 1.3,1.3 0 0 0 -0.145,-0.623 1.907,1.907 0 0 0 -0.4,-0.506 4.077,4.077 0 0 0 -0.6,-0.448 Q 19.84,17.047 19.44,16.823 a 4.045,4.045 0 0 1 -1.519,-1.419 3.884,3.884 0 0 1 -0.5,-2.026 4.232,4.232 0 0 1 0.273,-1.6 3.02,3.02 0 0 1 0.744,-1.1 2.938,2.938 0 0 1 1.088,-0.634 4.167,4.167 0 0 1 1.31,-0.2 5.816,5.816 0 0 1 1.2,0.111 3.8,3.8 0 0 1 0.967,0.345 v 2.482 A 2.859,2.859 0 0 0 22.527,12.417 3.212,3.212 0 0 0 21.997,12.155 3.1,3.1 0 0 0 21.46,12 a 2.794,2.794 0 0 0 -0.512,-0.05 1.994,1.994 0 0 0 -0.606,0.087 1.347,1.347 0 0 0 -0.461,0.245 1.092,1.092 0 0 0 -0.291,0.377 1.144,1.144 0 0 0 -0.1,0.494 1.2,1.2 0 0 0 0.115,0.536 1.657,1.657 0 0 0 0.328,0.448 3.461,3.461 0 0 0 0.515,0.415 c 0.2,0.136 0.43,0.275 0.686,0.419 a 7.094,7.094 0 0 1 0.936,0.635 3.712,3.712 0 0 1 0.713,0.759 3.269,3.269 0 0 1 0.455,0.967 4.573,4.573 0 0 1 0.158,1.266 4.439,4.439 0 0 1 -0.277,1.672 2.888,2.888 0 0 1 -0.749,1.1 2.823,2.823 0 0 1 -1.1,0.6 4.742,4.742 0 0 1 -1.325,0.182 5.476,5.476 0 0 1 -1.361,-0.166 3.41,3.41 0 0 1 -1.122,-0.495 z"
       style="fill:#ffffff;fill-opacity:1"
       id="path2-4" /><polygon
       points="24.822,10.044 26.78,10.044 26.78,19.773 30,19.773 30,21.947 24.822,21.947 "
       style="fill:#ffffff;fill-opacity:1"
       id="polygon3" /></g><g
     id="g241"
     transform="matrix(1.2135415,0,0,1.2135415,2637.3038,938.25341)"
     style="fill:#ffffff;fill-opacity:1"><path
       d="M 66.497,69.841 H 58.914 V 26.156 c 0,-3.451 0.211,-7.674 0.636,-12.669 h -0.182 c -0.727,2.937 -1.378,5.041 -1.953,6.312 L 35.164,69.841 H 31.44 L 9.235,20.162 C 8.599,18.709 7.948,16.484 7.282,13.487 H 7.101 c 0.242,2.604 0.363,6.857 0.363,12.76 V 69.841 H 0.107 V 4.723 h 10.081 l 19.98,45.41 c 1.544,3.481 2.543,6.085 2.997,7.811 h 0.272 c 1.301,-3.572 2.346,-6.236 3.133,-7.992 L 56.961,4.723 h 9.536 z"
       id="path1-5"
       style="fill:#ffffff;fill-opacity:1" /><path
       d="m 86.432,11.534 c -1.333,0 -2.468,-0.454 -3.406,-1.362 -0.938,-0.908 -1.408,-2.059 -1.408,-3.451 0,-1.392 0.469,-2.55 1.408,-3.474 0.938,-0.923 2.073,-1.385 3.406,-1.385 1.362,0 2.521,0.462 3.474,1.385 0.954,0.923 1.431,2.082 1.431,3.474 0,1.333 -0.477,2.468 -1.431,3.406 -0.953,0.938 -2.112,1.407 -3.474,1.407 z m 3.633,58.307 h -7.447 v -46.5 h 7.447 z"
       id="path2"
       style="fill:#ffffff;fill-opacity:1" /><path
       d="m 136.837,67.707 c -3.572,2.149 -7.811,3.224 -12.715,3.224 -6.63,0 -11.981,-2.157 -16.053,-6.471 -4.072,-4.314 -6.107,-9.907 -6.107,-16.779 0,-7.659 2.195,-13.812 6.584,-18.459 4.389,-4.647 10.247,-6.971 17.574,-6.971 4.087,0 7.689,0.757 10.808,2.271 v 7.629 c -3.451,-2.422 -7.145,-3.633 -11.08,-3.633 -4.753,0 -8.65,1.703 -11.693,5.108 -3.042,3.406 -4.563,7.879 -4.563,13.419 0,5.449 1.431,9.748 4.291,12.896 2.861,3.149 6.698,4.723 11.512,4.723 4.057,0 7.871,-1.347 11.443,-4.042 v 7.085 z"
       id="path3"
       style="fill:#ffffff;fill-opacity:1" /><path
       d="m 172.348,30.879 c -1.302,-0.999 -3.179,-1.499 -5.631,-1.499 -3.179,0 -5.835,1.499 -7.97,4.496 -2.134,2.997 -3.201,7.084 -3.201,12.261 v 23.704 h -7.447 v -46.5 h 7.447 v 9.582 h 0.182 c 1.06,-3.27 2.679,-5.82 4.859,-7.652 2.18,-1.831 4.616,-2.747 7.311,-2.747 1.937,0 3.421,0.212 4.45,0.636 z"
       id="path4-1"
       style="fill:#ffffff;fill-opacity:1" /><path
       d="m 198.641,70.931 c -6.873,0 -12.359,-2.172 -16.461,-6.517 -4.102,-4.344 -6.153,-10.104 -6.153,-17.278 0,-7.811 2.134,-13.911 6.403,-18.3 4.269,-4.389 10.036,-6.584 17.301,-6.584 6.932,0 12.344,2.134 16.234,6.403 3.89,4.269 5.835,10.188 5.835,17.755 0,7.417 -2.097,13.358 -6.29,17.823 -4.193,4.465 -9.816,6.698 -16.869,6.698 z m 0.545,-42.413 c -4.784,0 -8.567,1.627 -11.353,4.882 -2.786,3.254 -4.178,7.742 -4.178,13.464 0,5.51 1.408,9.854 4.223,13.033 2.815,3.179 6.584,4.768 11.307,4.768 4.813,0 8.514,-1.559 11.103,-4.677 2.588,-3.118 3.882,-7.553 3.882,-13.305 0,-5.813 -1.294,-10.292 -3.882,-13.441 -2.588,-3.15 -6.289,-4.724 -11.102,-4.724 z"
       id="path5-7"
       style="fill:#ffffff;fill-opacity:1" /><path
       d="m 230.882,68.161 v -7.992 c 4.057,2.997 8.521,4.496 13.396,4.496 6.539,0 9.809,-2.18 9.809,-6.539 0,-1.241 -0.28,-2.293 -0.84,-3.156 -0.561,-0.862 -1.317,-1.627 -2.271,-2.293 -0.954,-0.666 -2.074,-1.264 -3.36,-1.794 -1.287,-0.529 -2.672,-1.082 -4.155,-1.657 -2.059,-0.817 -3.868,-1.642 -5.427,-2.475 -1.559,-0.833 -2.86,-1.771 -3.905,-2.815 -1.044,-1.045 -1.832,-2.232 -2.361,-3.565 -0.53,-1.332 -0.794,-2.891 -0.794,-4.677 0,-2.18 0.5,-4.109 1.499,-5.79 0.999,-1.68 2.331,-3.088 3.996,-4.223 1.665,-1.136 3.564,-1.991 5.699,-2.566 2.134,-0.575 4.336,-0.863 6.607,-0.863 4.026,0 7.629,0.697 10.808,2.089 v 7.538 c -3.421,-2.24 -7.356,-3.36 -11.807,-3.36 -1.393,0 -2.649,0.159 -3.769,0.477 -1.12,0.318 -2.082,0.765 -2.884,1.34 -0.802,0.575 -1.423,1.264 -1.861,2.066 -0.439,0.802 -0.659,1.688 -0.659,2.656 0,1.211 0.219,2.225 0.659,3.042 0.438,0.817 1.082,1.544 1.93,2.18 0.847,0.636 1.877,1.211 3.088,1.726 1.21,0.515 2.588,1.075 4.132,1.68 2.059,0.788 3.905,1.597 5.54,2.43 1.635,0.833 3.027,1.771 4.178,2.815 1.15,1.044 2.036,2.248 2.657,3.61 0.62,1.362 0.931,2.982 0.931,4.859 0,2.301 -0.507,4.299 -1.521,5.994 -1.014,1.696 -2.369,3.104 -4.064,4.223 -1.696,1.12 -3.648,1.953 -5.858,2.498 -2.21,0.545 -4.526,0.817 -6.948,0.817 -4.786,-0.001 -8.933,-0.925 -12.445,-2.771 z"
       id="path6-1"
       style="fill:#ffffff;fill-opacity:1" /><path
       d="m 292.595,70.931 c -6.873,0 -12.359,-2.172 -16.462,-6.517 -4.103,-4.344 -6.153,-10.104 -6.153,-17.278 0,-7.811 2.135,-13.911 6.403,-18.3 4.269,-4.389 10.036,-6.584 17.302,-6.584 6.932,0 12.344,2.134 16.233,6.403 3.889,4.269 5.835,10.188 5.835,17.755 0,7.417 -2.096,13.358 -6.289,17.823 -4.193,4.465 -9.816,6.698 -16.869,6.698 z m 0.545,-42.413 c -4.784,0 -8.568,1.627 -11.354,4.882 -2.786,3.255 -4.178,7.742 -4.178,13.464 0,5.51 1.408,9.854 4.224,13.033 2.816,3.179 6.585,4.768 11.308,4.768 4.813,0 8.514,-1.559 11.103,-4.677 2.588,-3.118 3.882,-7.553 3.882,-13.305 0,-5.813 -1.294,-10.292 -3.882,-13.441 -2.589,-3.15 -6.29,-4.724 -11.103,-4.724 z"
       id="path7-1"
       style="fill:#ffffff;fill-opacity:1" /><path
       d="M 348.949,7.538 C 347.496,6.721 345.845,6.312 344,6.312 c -5.208,0 -7.811,3.285 -7.811,9.854 v 7.175 h 10.898 v 6.357 h -10.898 v 40.143 h -7.402 V 29.698 h -7.947 v -6.357 h 7.947 v -7.538 c 0,-4.874 1.408,-8.726 4.223,-11.557 C 335.826,1.416 339.336,0 343.544,0 c 2.271,0 4.072,0.272 5.404,0.817 v 6.721 z"
       id="path8-5"
       style="fill:#ffffff;fill-opacity:1" /><path
       d="m 378.328,69.387 c -1.756,0.969 -4.071,1.453 -6.947,1.453 -8.144,0 -12.215,-4.541 -12.215,-13.623 V 29.698 h -7.992 v -6.357 h 7.992 V 11.988 l 7.447,-2.407 V 23.34 h 11.715 v 6.357 H 366.613 V 55.9 c 0,3.118 0.529,5.343 1.589,6.675 1.06,1.333 2.815,1.998 5.268,1.998 1.877,0 3.497,-0.515 4.858,-1.544 z"
       id="path9-2"
       style="fill:#ffffff;fill-opacity:1" /><path
       d="M 0,264.242 V 86.393 h 49.113 c 62.672,0 94.01,28.897 94.01,86.693 0,27.451 -8.703,49.506 -26.107,66.166 -17.406,16.662 -40.701,24.99 -69.887,24.99 z M 20.836,105.245 v 140.146 h 26.541 c 23.316,0 41.464,-6.242 54.446,-18.727 12.98,-12.484 19.472,-30.18 19.472,-53.082 0,-45.558 -24.227,-68.337 -72.678,-68.337 H 20.836 Z"
       id="path10-7"
       style="fill:#ffffff;fill-opacity:1" /><path
       d="m 185.787,104.997 c -3.639,0 -6.74,-1.24 -9.302,-3.721 -2.564,-2.48 -3.845,-5.622 -3.845,-9.426 0,-3.802 1.281,-6.965 3.845,-9.488 2.562,-2.521 5.663,-3.783 9.302,-3.783 3.721,0 6.883,1.262 9.488,3.783 2.604,2.523 3.907,5.686 3.907,9.488 0,3.639 -1.302,6.74 -3.907,9.302 -2.605,2.564 -5.767,3.845 -9.488,3.845 z m 9.922,159.245 h -20.34 v -127 h 20.34 z"
       id="path11-6"
       style="fill:#ffffff;fill-opacity:1" /><path
       d="m 303.113,157.83 c -3.556,-2.729 -8.682,-4.092 -15.379,-4.092 -8.682,0 -15.938,4.092 -21.766,12.277 -5.83,8.186 -8.744,19.348 -8.744,33.486 v 64.74 h -20.34 v -127 h 20.34 v 26.17 h 0.496 c 2.894,-8.93 7.317,-15.895 13.271,-20.898 5.953,-5.002 12.607,-7.504 19.968,-7.504 5.29,0 9.343,0.58 12.154,1.736 z"
       id="path12-1"
       style="fill:#ffffff;fill-opacity:1" /><path
       d="m 423.912,205.828 h -89.669 c 0.329,14.139 4.134,25.053 11.41,32.742 7.274,7.689 17.28,11.533 30.014,11.533 14.304,0 27.45,-4.713 39.439,-14.139 v 19.1 c -11.162,8.105 -25.921,12.154 -44.276,12.154 -17.942,0 -32.041,-5.766 -42.292,-17.301 -10.253,-11.533 -15.379,-27.76 -15.379,-48.68 0,-19.76 5.601,-35.861 16.806,-48.307 11.202,-12.443 25.114,-18.666 41.733,-18.666 16.619,0 29.475,5.376 38.571,16.123 9.095,10.75 13.643,25.674 13.643,44.773 z m -20.836,-17.24 c -0.083,-11.738 -2.914,-20.877 -8.496,-27.408 -5.58,-6.531 -13.332,-9.799 -23.254,-9.799 -9.593,0 -17.735,3.432 -24.433,10.295 -6.698,6.863 -10.833,15.834 -12.402,26.912 z"
       id="path13"
       style="fill:#ffffff;fill-opacity:1" /><path
       d="m 541.239,258.414 c -9.758,5.869 -21.332,8.805 -34.727,8.805 -18.107,0 -32.723,-5.891 -43.842,-17.672 -11.122,-11.783 -16.682,-27.057 -16.682,-45.828 0,-20.916 5.994,-37.723 17.983,-50.414 11.988,-12.691 27.986,-19.039 47.998,-19.039 11.162,0 21,2.068 29.518,6.201 v 20.836 c -9.426,-6.613 -19.516,-9.922 -30.262,-9.922 -12.982,0 -23.627,4.652 -31.936,13.953 -8.311,9.303 -12.465,21.518 -12.465,36.648 0,14.883 3.907,26.625 11.721,35.223 7.813,8.602 18.293,12.898 31.439,12.898 11.078,0 21.496,-3.678 31.254,-11.037 v 19.348 z"
       id="path14"
       style="fill:#ffffff;fill-opacity:1" /><path
       d="m 630.907,263.002 c -4.795,2.646 -11.121,3.969 -18.975,3.969 -22.244,0 -33.363,-12.402 -33.363,-37.207 v -75.158 h -21.828 v -17.363 h 21.828 v -31.005 l 20.34,-6.573 v 37.579 h 31.998 v 17.363 h -31.998 v 71.563 c 0,8.516 1.445,14.594 4.342,18.23 2.893,3.641 7.689,5.457 14.387,5.457 5.125,0 9.549,-1.404 13.27,-4.217 v 17.362 z"
       id="path15"
       style="fill:#ffffff;fill-opacity:1" /><path
       d="m 783.581,264.242 h -25.426 l -40.928,-68.088 c -1.24,-2.066 -2.604,-5.002 -4.092,-8.807 h -0.496 c -0.828,1.904 -2.232,4.838 -4.217,8.807 l -42.168,68.088 h -25.549 l 59.531,-89.42 -54.818,-88.429 h 25.549 l 36.338,62.507 c 2.398,4.137 4.506,8.27 6.326,12.402 h 0.496 c 2.645,-5.457 4.961,-9.754 6.945,-12.898 l 37.826,-62.011 h 23.938 L 726.9,174.574 Z"
       id="path16"
       style="fill:#ffffff;fill-opacity:1" /><path
       d="m 800.583,264.242 v -6.563 h 25.625 v -100 l -27.422,9.766 v -7.188 l 34.609,-12.031 V 257.68 h 25.234 v 6.563 h -58.046 z"
       id="path17"
       style="fill:#ffffff;fill-opacity:1" /><path
       d="m 883.004,264.242 v -6.563 h 25.625 v -100 l -27.422,9.766 v -7.188 l 34.609,-12.031 V 257.68 h 25.234 v 6.563 h -58.046 z"
       id="path18"
       style="fill:#ffffff;fill-opacity:1" /><path
       d="m 395.047,34.787 c -3.442,0 -6.378,-1.214 -8.807,-3.644 -2.43,-2.429 -3.644,-5.365 -3.644,-8.807 0,-3.442 1.214,-6.377 3.644,-8.807 2.429,-2.429 5.365,-3.644 8.807,-3.644 3.431,0 6.361,1.215 8.791,3.644 2.429,2.43 3.644,5.365 3.644,8.807 0,3.442 -1.215,6.378 -3.644,8.807 -2.43,2.43 -5.36,3.644 -8.791,3.644 z m 0,-23.441 c -3.033,0 -5.623,1.074 -7.77,3.221 -2.147,2.147 -3.221,4.737 -3.221,7.77 0,3.033 1.073,5.62 3.221,7.761 2.147,2.142 4.737,3.212 7.77,3.212 3.032,0 5.62,-1.071 7.761,-3.212 2.141,-2.141 3.212,-4.729 3.212,-7.761 0,-3.032 -1.071,-5.622 -3.212,-7.77 -2.141,-2.148 -4.729,-3.221 -7.761,-3.221 z m 6.043,18.776 h -2.69 l -1.727,-3.802 c -0.875,-1.903 -1.815,-2.855 -2.822,-2.855 h -1.461 v 6.657 h -2.208 V 14.284 h 4.449 c 1.848,0 3.273,0.388 4.275,1.162 1.001,0.775 1.502,1.826 1.502,3.154 0,1.085 -0.352,2.009 -1.054,2.772 -0.703,0.764 -1.685,1.278 -2.947,1.544 v 0.066 c 0.874,0.188 1.743,1.162 2.606,2.922 z m -8.699,-13.945 v 5.412 h 2.374 c 2.18,0 3.271,-0.907 3.271,-2.723 0,-0.974 -0.293,-1.666 -0.88,-2.075 -0.587,-0.409 -1.517,-0.614 -2.789,-0.614 z"
       id="path19-4"
       style="fill:#ffffff;fill-opacity:1" /><path
       d="m 797.073,112.685 c -3.442,0 -6.378,-1.214 -8.807,-3.644 -2.43,-2.429 -3.645,-5.365 -3.645,-8.807 0,-3.442 1.215,-6.377 3.645,-8.807 2.429,-2.429 5.364,-3.644 8.807,-3.644 3.431,0 6.361,1.215 8.791,3.644 2.429,2.43 3.644,5.365 3.644,8.807 0,3.442 -1.215,6.378 -3.644,8.807 -2.43,2.43 -5.361,3.644 -8.791,3.644 z m 0,-23.441 c -3.033,0 -5.623,1.074 -7.77,3.221 -2.147,2.147 -3.221,4.737 -3.221,7.77 0,3.033 1.073,5.62 3.221,7.761 2.146,2.142 4.736,3.212 7.77,3.212 3.032,0 5.619,-1.071 7.762,-3.212 2.141,-2.142 3.212,-4.729 3.212,-7.761 0,-3.032 -1.071,-5.622 -3.212,-7.77 -2.143,-2.148 -4.73,-3.221 -7.762,-3.221 z m 6.043,18.776 h -2.689 l -1.727,-3.802 c -0.875,-1.903 -1.815,-2.855 -2.822,-2.855 h -1.461 v 6.657 h -2.208 V 92.182 h 4.449 c 1.849,0 3.272,0.388 4.274,1.162 1.002,0.775 1.503,1.826 1.503,3.154 0,1.085 -0.352,2.009 -1.054,2.772 -0.703,0.764 -1.686,1.278 -2.947,1.544 v 0.066 c 0.874,0.188 1.743,1.162 2.606,2.922 z m -8.699,-13.945 v 5.412 h 2.374 c 2.181,0 3.271,-0.907 3.271,-2.723 0,-0.974 -0.293,-1.666 -0.88,-2.075 -0.587,-0.409 -1.517,-0.614 -2.789,-0.614 z"
       id="path20-2"
       style="fill:#ffffff;fill-opacity:1" /></g><text
     xml:space="preserve"
     id="text243"
     style="font-size:120px;text-align:start;writing-mode:lr-tb;direction:ltr;white-space:pre;shape-inside:url(#rect243);fill:#ffffff;fill-opacity:1"
     transform="matrix(0.54044118,0,0,0.54044118,-283.2573,2020.5807)"><tspan
       x="700"
       y="137.47964"
       id="tspan2"><tspan
         style="font-weight:bold;font-family:Unispace;-inkscape-font-specification:'Unispace Bold'"
         id="tspan1">www.preciado.eu</tspan></tspan></text></svg>
