<?xml version="1.0" encoding="UTF-8" standalone="no"?>
<!-- Created with Inkscape (http://www.inkscape.org/) -->

<svg
   width="1920"
   height="1080"
   viewBox="0 0 1920 1080"
   version="1.1"
   id="svg1"
   xml:space="preserve"
   inkscape:export-filename="bitmap.svg"
   inkscape:export-xdpi="96"
   inkscape:export-ydpi="96"
   xmlns:inkscape="http://www.inkscape.org/namespaces/inkscape"
   xmlns:sodipodi="http://sodipodi.sourceforge.net/DTD/sodipodi-0.dtd"
   xmlns:xlink="http://www.w3.org/1999/xlink"
   xmlns="http://www.w3.org/2000/svg"
   xmlns:svg="http://www.w3.org/2000/svg"><sodipodi:namedview
     id="namedview1"
     pagecolor="#ffffff"
     bordercolor="#000000"
     borderopacity="0.25"
     inkscape:showpageshadow="2"
     inkscape:pageopacity="0.0"
     inkscape:pagecheckerboard="0"
     inkscape:deskcolor="#d1d1d1"
     inkscape:document-units="px"><inkscape:page
       x="0"
       y="0"
       width="1920"
       height="1080"
       id="page2"
       margin="0"
       bleed="0" /></sodipodi:namedview><defs
     id="defs1"><rect
       x="791.11841"
       y="414.4855"
       width="855.46777"
       height="531.82843"
       id="rect2" /><rect
       id="SVGID_1_"
       width="246"
       height="126"
       x="0"
       y="0" /></defs><g
     inkscape:label="Capa 1"
     inkscape:groupmode="layer"
     id="layer1"><rect
       style="fill:#272727;fill-opacity:1"
       id="rect1"
       width="2062.9644"
       height="1211.2819"
       x="-87.060883"
       y="-79.490372" /><g
       id="g114"
       transform="matrix(8.655141,0,0,11.140768,-144.87799,57.80081)"
       style="fill:#d61000;fill-opacity:1">
	<defs
   id="defs1-5" />
	<clipPath
   id="SVGID_00000045612681816563470480000010088273292044977559_">
		<use
   xlink:href="#SVGID_1_"
   style="overflow:visible"
   id="use1" />
	</clipPath>
	<g
   clip-path="url(#SVGID_00000045612681816563470480000010088273292044977559_)"
   id="g113"
   style="fill:#d61000;fill-opacity:1">
		
			<linearGradient
   id="SVGID_00000134223580582153755910000004083629674373158025_"
   gradientUnits="userSpaceOnUse"
   x1="102.3366"
   y1="50.063202"
   x2="102.3366"
   y2="139.6189"
   gradientTransform="matrix(1.3283,-0.011,0.0083,1,-11.9016,-12.2105)">
			<stop
   offset="0"
   style="stop-color:#FF7900"
   id="stop1" />
			<stop
   offset="0.9575"
   style="stop-color:#A90900"
   id="stop2" />
		</linearGradient>
		<path
   style="opacity:0.5;fill:#d61000;fill-opacity:1"
   d="m 252.947,70.898 c -1.233,-3.555 -4.548,-6.672 -6.681,-9.932 -2.041,-3.119 -1.389,-7.427 1.763,-10.014 0.195,-0.16 -0.106,-0.347 -0.318,-0.257 -0.131,0.055 -0.256,0.113 -0.379,0.173 -0.04,-0.049 -0.113,-0.076 -0.203,-0.043 -1.95,0.706 -3.673,1.717 -5.017,2.985 0.437,-2.202 2.151,-3.751 3.73,-5.625 0.115,-0.135 -0.11,-0.286 -0.258,-0.16 -0.03,0.025 -0.058,0.047 -0.086,0.073 -0.058,-0.019 -0.122,-0.019 -0.183,0.006 -0.496,0.212 -0.985,0.463 -1.444,0.75 -3.675,2.025 -8.242,5.44 -8.839,8.795 -0.446,2.518 0.83,4.879 0.616,7.376 -0.102,1.196 -0.696,2.158 -1.552,2.991 0.063,-0.146 0.118,-0.286 0.166,-0.418 0.632,-1.741 0.674,-3.584 -0.371,-5.176 -0.146,-0.316 -0.363,-0.617 -0.677,-0.891 -0.101,-0.09 -0.318,-0.02 -0.254,0.1 0.304,0.584 0.364,1.118 0.274,1.624 -1.269,1.489 -3.881,2.184 -5.786,3.11 -2.105,1.024 -3.931,2.308 -5.432,3.819 -1.422,1.426 -2.34,3.189 -2.695,5.006 -1.136,-1.334 -2.766,-2.442 -4.482,-3.066 -0.133,-0.048 -0.248,0.098 -0.136,0.163 0.093,0.055 0.179,0.115 0.271,0.173 3.249,4.465 -2.855,7.924 -3.979,11.99 -0.126,0.456 -0.139,0.943 -0.051,1.424 -1.095,-1.143 -1.517,-2.552 -0.797,-4.131 0.627,-1.374 1.233,-2.86 1.241,-4.317 0.012,-2.111 -0.928,-5.36 -3.482,-6.606 -0.027,-0.033 -0.045,-0.067 -0.072,-0.1 -0.051,-0.065 -0.133,-0.055 -0.188,-0.018 -0.027,0 -0.05,0.018 -0.043,0.038 -0.01,0.018 -0.022,0.035 -0.019,0.055 -0.066,0.027 -0.113,0.082 -0.08,0.138 0.075,0.128 0.14,0.256 0.203,0.381 0.218,1.04 -0.033,2.033 -0.499,2.998 0.152,-1.294 0.025,-2.607 -0.254,-3.755 -0.699,-2.891 -3.016,-7.39 -6.801,-8.862 -0.002,0 -0.002,-0.002 -0.005,-0.002 -0.008,-0.008 -0.018,-0.005 -0.025,-0.008 -0.135,-0.051 -0.271,-0.111 -0.411,-0.154 -0.192,-0.063 -0.323,0.121 -0.186,0.226 0.398,0.301 0.763,0.62 1.108,0.951 0.587,1.021 0.604,1.977 0.293,2.922 -0.776,-2.405 -2.757,-4.887 -4.099,-6.256 -3.251,-3.331 -12.983,-10.773 -6.145,-14.851 0.203,-0.124 0.04,-0.378 -0.216,-0.308 -0.266,0.073 -0.509,0.159 -0.736,0.254 -0.046,0.003 -0.091,0.01 -0.131,0.03 -2.532,1.255 -3.961,2.676 -4.948,4.842 -0.23,0.509 -0.437,1.098 -0.542,1.703 -0.471,-0.672 -0.811,-1.382 -0.899,-2.235 -0.259,-2.607 1.742,-4.391 3.672,-6.322 0.011,-0.005 0.02,-0.013 0.03,-0.018 0.028,-0.015 0.038,-0.038 0.046,-0.058 0.005,-0.002 0.005,-0.005 0.007,-0.008 0.003,0 0.003,-0.005 0.008,-0.007 v -0.002 c 0.101,-0.12 -0.101,-0.298 -0.261,-0.193 -0.096,0.065 -0.19,0.13 -0.286,0.197 -5.139,2.085 -9.411,5.511 -7.756,10.179 1.195,3.374 3.404,6.235 2.772,9.868 -0.301,1.731 -1.251,2.915 -2.502,3.956 0.181,-1.715 -0.264,-3.433 -1.414,-4.569 -0.181,-0.178 -0.557,-0.03 -0.461,0.186 0.16,0.371 0.278,0.737 0.358,1.1 -0.526,1.977 -2.577,3.452 -4.46,4.806 -1.659,1.193 -2.988,2.544 -3.888,4.116 0.21,-0.777 0.544,-1.539 0.805,-2.299 0.027,-0.075 -0.04,-0.113 -0.121,-0.12 -0.077,-0.068 -0.226,-0.093 -0.336,-0.003 -2.08,1.612 -3.725,3.349 -4.174,5.613 -0.544,2.755 2.47,5.149 3.097,7.754 0.872,3.633 -3.398,5.17 -6.709,6.869 0.432,-1.409 0.507,-2.913 0.446,-4.091 -0.138,-2.773 -2.429,-5.139 -2.655,-7.907 -0.248,-2.998 1.908,-5.994 5.157,-7.591 0.275,-0.138 0.03,-0.406 -0.243,-0.361 -0.692,0.128 -1.318,0.334 -1.893,0.594 -3.134,0.574 -5.927,2.193 -7.135,4.254 -0.226,-2.612 0.456,-5.145 4.137,-6.373 0.19,-0.065 0.09,-0.271 -0.105,-0.226 -0.432,0.098 -0.838,0.231 -1.224,0.391 -1.524,0.258 -2.848,0.903 -3.991,1.705 -0.333,0.235 -0.682,0.531 -0.998,0.862 0.176,-4.591 -6.347,-8.897 -3.356,-13.21 0.734,-0.61 1.52,-1.213 2.304,-1.833 0.115,-0.087 -0.04,-0.248 -0.188,-0.199 -3.071,1.047 -7.225,4.076 -7.899,7.061 -2.063,-1.882 -3.374,-4.03 -2.938,-6.887 0.584,-3.852 3.397,-7.153 3.553,-11.125 0.193,-4.914 -3.076,-12.117 -9.734,-13.981 -0.146,-0.086 -0.291,-0.174 -0.446,-0.262 -0.115,-0.063 -0.24,0.013 -0.243,0.093 -0.138,-0.029 -0.273,-0.062 -0.414,-0.086 -0.13,-0.025 -0.195,0.135 -0.07,0.168 0.369,0.098 0.718,0.217 1.054,0.345 6.119,4.249 -0.231,10.16 -3.671,14.342 -1.403,1.712 -2.778,3.475 -3.381,5.456 -0.108,0.359 -0.188,0.756 -0.241,1.172 -0.739,-0.733 -1.688,-1.377 -2.731,-1.808 -0.341,-0.142 -4.498,-1.657 -4.554,-1.035 0.001,-0.02 -0.018,-0.038 -0.044,-0.038 -0.045,0.005 -0.088,0.007 -0.132,0.01 -0.186,0.01 -0.171,0.196 -0.012,0.228 0.502,0.107 0.973,0.238 1.422,0.384 2.562,1.86 2.801,4.293 2.826,6.918 0.025,2.953 -2.392,4.901 -5.011,6.833 -1.429,1.05 -3.596,2.922 -4.721,4.854 -0.465,-1.417 0.555,-2.723 1.692,-4.33 1.378,-1.943 0.601,-3.875 -1.372,-5.318 -0.124,-0.09 -0.273,0.05 -0.203,0.146 0.672,0.936 0.847,1.743 0.735,2.48 -0.247,0.649 -0.704,1.25 -1.296,1.77 -0.182,0.16 -0.385,0.302 -0.598,0.435 0.076,-0.2 0.149,-0.394 0.204,-0.566 1.25,-3.843 -2.907,-8.19 1.679,-11.465 0.147,-0.109 -0.053,-0.314 -0.234,-0.248 -0.176,0.063 -0.34,0.131 -0.499,0.204 -0.033,-0.002 -0.068,0 -0.103,0.015 -1.501,0.673 -2.859,1.525 -4.129,2.43 -0.162,0.116 -0.327,0.233 -0.495,0.36 0.465,-0.829 0.833,-1.647 1.097,-2.376 1.306,-3.63 0.268,-7.958 -3.094,-10.796 -0.116,-0.098 -0.392,-0.02 -0.296,0.118 0.306,0.444 0.58,0.891 0.828,1.345 0.435,1.267 0.626,2.3 -0.133,3.658 -0.504,0.904 -1.412,1.734 -2.177,2.522 -0.496,0.513 -1.061,0.96 -1.654,1.38 1.877,-2.148 2.545,-4.589 1.66,-7.52 -1.495,-4.946 -10.517,-10.603 -5.305,-15.746 0.077,-0.078 -0.056,-0.198 -0.16,-0.127 -0.401,0.268 -0.734,0.553 -1.031,0.846 -0.051,-0.058 -0.145,-0.092 -0.224,-0.039 -1.606,1.096 -2.939,2.252 -3.527,3.855 -0.064,0.176 -0.148,0.404 -0.228,0.657 -0.929,-1.254 -1.114,-2.808 -0.915,-4.243 0.395,-2.833 2.005,-4.745 5.044,-6.352 0.062,-0.033 0.007,-0.115 -0.064,-0.09 -0.104,0.033 -0.203,0.073 -0.305,0.109 -10e-4,-0.052 -0.058,-0.103 -0.147,-0.087 -6.099,1.098 -12.431,3.921 -14.982,8.422 -1.379,2.429 -1.117,4.965 -0.294,7.453 0.57,1.721 1.432,3.394 1.085,5.199 -0.265,1.38 -1.537,2.398 -2.911,3.26 0.078,-1.672 -0.442,-3.388 -1.237,-4.979 -0.929,-1.855 -3.761,-4.365 -6.7,-4.078 -0.174,-0.039 -0.345,-0.084 -0.528,-0.114 -0.093,-0.018 -0.128,0.088 -0.046,0.118 4.202,1.488 5.066,4.675 4.506,7.938 -0.253,1.481 -0.95,2.914 -1.884,4.225 -1.108,1.557 -2.904,2.4 -4.873,3.134 -0.158,-1.043 0.166,-1.973 0.841,-2.894 0.139,-0.089 0.271,-0.182 0.417,-0.27 0.192,-0.118 -0.017,-0.341 -0.221,-0.236 -2.232,1.151 -3.812,2.516 -4.528,4.513 -0.038,0.1 -0.071,0.208 -0.105,0.318 -0.187,-0.394 -0.393,-0.756 -0.596,-1.057 -1.317,-1.953 -3.353,-2.716 -5.788,-2.882 -0.55,-0.109 -1.154,-0.155 -1.818,-0.119 -0.072,0.004 -0.084,0.064 -0.044,0.097 -0.229,0.007 -0.457,0.018 -0.689,0.034 -0.144,0.007 -0.162,0.19 -0.009,0.198 1.095,0.053 2.074,0.183 2.953,0.422 1.265,0.599 1.931,1.538 2.317,2.925 0.413,1.476 0.132,3.054 -0.545,4.454 -1.212,2.517 -4.041,4.436 -5.787,6.731 -0.655,0.864 -1.107,2.27 -1.112,3.646 -0.894,-1.637 -0.873,-3.322 0.518,-4.871 0.078,-0.087 -0.061,-0.226 -0.178,-0.145 -0.126,0.087 -0.247,0.175 -0.36,0.266 -0.084,-0.042 -0.194,-0.057 -0.29,-0.006 -4.157,2.25 -5.313,5.897 -3.185,9.365 1.235,2.013 3.161,3.692 3.399,5.994 0.143,1.374 -0.539,2.507 -1.611,3.412 0.104,-0.865 -0.017,-1.75 -0.3,-2.595 -1.404,-4.239 -8.053,-8.268 -5.211,-12.888 0.064,-0.105 -0.126,-0.189 -0.223,-0.104 -0.413,0.366 -0.732,0.736 -0.99,1.109 -0.042,0 -0.083,0.013 -0.111,0.045 -1.26,1.444 -2.262,2.953 -2.62,4.563 -0.356,-1.085 -0.915,-2.136 -1.445,-3.044 -2.038,-3.463 -4.304,-7.4 -1.468,-10.975 C 42.7,58 42.461,57.853 42.329,57.946 c -0.419,0.29 -0.773,0.603 -1.08,0.935 -1.248,0.862 -2.344,1.965 -2.892,3.193 0.168,-1.125 0.796,-2.229 1.673,-3.138 0.11,-0.113 -0.079,-0.288 -0.234,-0.188 -0.273,0.179 -0.536,0.373 -0.781,0.574 -0.056,-0.018 -0.12,-0.015 -0.174,0.022 -0.738,0.513 -1.418,1.168 -1.959,1.894 -0.019,-1 -0.153,-1.943 -0.342,-2.694 -0.599,-2.386 -2.061,-4.483 -3.771,-6.505 -2.687,-3.179 -3.068,-6.469 0.436,-9.405 0.138,-0.115 -0.076,-0.258 -0.234,-0.188 -0.357,0.157 -0.681,0.337 -0.988,0.529 -1.579,0.582 -3.115,1.959 -4.048,3.528 -0.392,-3.101 0.536,-6.073 4.022,-8.527 0.194,-0.094 0.388,-0.189 0.583,-0.277 0.158,-0.073 0.019,-0.256 -0.146,-0.213 -5.045,1.306 -8.689,4.299 -10.609,8.017 -1.103,2.134 -0.511,4.098 0.085,6.25 0.551,1.997 -0.187,4.059 -2.817,4.986 -0.381,0.136 -0.766,0.241 -1.154,0.336 1.032,-1.572 0.584,-4.248 -0.223,-5.518 -0.044,-0.069 -0.16,-0.091 -0.247,-0.069 -0.014,-0.025 -0.023,-0.053 -0.038,-0.075 -0.047,-0.08 -0.231,-0.063 -0.21,0.035 0.347,1.562 -0.33,2.854 -1.451,4.135 -0.441,0.501 -1.033,0.905 -1.62,1.306 -0.017,-0.963 -0.425,-1.962 -1.005,-2.758 -0.241,-0.529 -0.642,-1.026 -1.245,-1.459 -0.099,-0.07 -0.267,0.026 -0.216,0.115 3.251,5.795 -8.568,7.883 -8.795,13.193 -0.093,2.137 1.23,3.852 3.131,5.366 1.795,1.429 6.329,4.312 4.194,6.604 -0.333,-0.236 -0.703,-0.446 -1.098,-0.627 -1.074,-0.486 -2.39,-0.075 -3.498,0.166 -0.006,0.005 -0.006,0.01 -0.013,0.01 -0.435,0.078 -0.858,0.203 -1.249,0.376 -0.185,0.08 -0.022,0.291 0.165,0.241 3.361,-0.913 4.853,1.709 3.706,3.602 -0.701,1.153 -2.285,0.98 -3.532,1.312 -2.069,0.316 -3.948,0.671 -5.962,1.767 -0.87,0.477 -1.625,1.056 -2.277,1.695 l 0.115,13.851 0.256,30.639 256.875,-2.144 -0.391,-47.057 -0.083,-10.153 c -0.09,-0.279 -0.168,-0.529 -0.241,-0.73 z"
   id="path2" />
		<g
   id="g44"
   style="fill:#d61000;fill-opacity:1">
			
				<linearGradient
   id="SVGID_00000183939362140021723530000001036602578891934908_"
   gradientUnits="userSpaceOnUse"
   x1="101.6959"
   y1="52.9921"
   x2="101.6959"
   y2="139.73399"
   gradientTransform="matrix(1.3283,-0.011,0.0083,1,-11.9016,-12.2105)">
				<stop
   offset="0.0413"
   style="stop-color:#FFF55B"
   id="stop3" />
				<stop
   offset="0.4142"
   style="stop-color:#FF7900"
   id="stop4" />
				<stop
   offset="0.9575"
   style="stop-color:#A90900"
   id="stop5" />
			</linearGradient>
			<path
   style="fill:#d61000;fill-opacity:1"
   d="m 248.813,72.756 c -1.203,-3.442 -4.435,-6.463 -6.511,-9.621 -1.987,-3.022 -1.354,-7.195 1.718,-9.698 0.19,-0.158 -0.101,-0.338 -0.311,-0.251 -0.127,0.052 -0.248,0.109 -0.368,0.167 -0.04,-0.048 -0.107,-0.075 -0.198,-0.042 -1.9,0.684 -3.577,1.665 -4.886,2.893 0.424,-2.133 2.096,-3.636 3.633,-5.45 0.115,-0.13 -0.108,-0.274 -0.251,-0.154 -0.03,0.025 -0.055,0.048 -0.085,0.07 -0.053,-0.018 -0.118,-0.02 -0.176,0.005 -0.483,0.207 -0.958,0.451 -1.406,0.729 -3.58,1.959 -8.032,5.268 -8.611,8.516 -0.437,2.441 0.805,4.727 0.597,7.148 -0.098,1.156 -0.677,2.091 -1.512,2.896 0.061,-0.14 0.118,-0.278 0.163,-0.406 0.616,-1.687 0.657,-3.471 -0.361,-5.012 -0.14,-0.306 -0.354,-0.597 -0.656,-0.864 -0.101,-0.088 -0.313,-0.02 -0.251,0.1 0.293,0.562 0.355,1.08 0.266,1.569 -1.236,1.444 -3.777,2.116 -5.636,3.016 -2.051,0.993 -3.83,2.233 -5.294,3.698 -1.384,1.384 -2.276,3.088 -2.623,4.851 -1.107,-1.293 -2.694,-2.366 -4.372,-2.973 -0.125,-0.042 -0.237,0.095 -0.127,0.161 0.093,0.052 0.173,0.11 0.261,0.166 3.166,4.327 -2.78,7.679 -3.874,11.614 -0.122,0.441 -0.133,0.913 -0.05,1.381 -1.068,-1.108 -1.477,-2.474 -0.777,-4.001 0.612,-1.331 1.203,-2.773 1.211,-4.187 0.013,-2.04 -0.902,-5.187 -3.395,-6.393 -0.024,-0.035 -0.042,-0.065 -0.067,-0.101 -0.05,-0.06 -0.128,-0.05 -0.186,-0.015 -0.025,0 -0.048,0.015 -0.04,0.035 -0.013,0.015 -0.022,0.035 -0.02,0.056 -0.063,0.025 -0.11,0.08 -0.077,0.135 0.072,0.12 0.138,0.246 0.2,0.366 0.208,1.008 -0.032,1.971 -0.488,2.903 0.147,-1.254 0.024,-2.522 -0.246,-3.638 -0.682,-2.8 -2.94,-7.156 -6.626,-8.582 l -0.005,-0.002 c -0.008,-0.005 -0.015,-0.002 -0.024,-0.007 -0.134,-0.05 -0.264,-0.108 -0.401,-0.149 -0.188,-0.06 -0.316,0.121 -0.179,0.221 0.387,0.29 0.74,0.601 1.078,0.92 0.572,0.989 0.587,1.914 0.283,2.831 -0.757,-2.33 -2.688,-4.733 -3.99,-6.062 -3.169,-3.223 -12.65,-10.432 -5.987,-14.382 0.196,-0.118 0.038,-0.366 -0.21,-0.298 -0.256,0.071 -0.496,0.154 -0.717,0.247 -0.046,0.002 -0.091,0.009 -0.131,0.029 -2.462,1.216 -3.855,2.595 -4.818,4.69 -0.226,0.494 -0.426,1.066 -0.531,1.647 -0.456,-0.648 -0.79,-1.336 -0.872,-2.161 -0.254,-2.527 1.699,-4.255 3.579,-6.125 0.008,-0.005 0.02,-0.012 0.028,-0.018 0.027,-0.015 0.037,-0.035 0.045,-0.055 0.002,-0.002 0.005,-0.005 0.008,-0.007 0,-0.002 0.002,-0.005 0.005,-0.007 v -0.003 c 0.098,-0.118 -0.096,-0.288 -0.254,-0.185 -0.095,0.063 -0.186,0.125 -0.28,0.189 -5.007,2.021 -9.168,5.338 -7.554,9.86 1.163,3.269 3.314,6.038 2.697,9.559 -0.29,1.675 -1.218,2.822 -2.436,3.83 0.179,-1.659 -0.256,-3.326 -1.379,-4.424 -0.175,-0.173 -0.541,-0.029 -0.448,0.18 0.158,0.361 0.27,0.714 0.349,1.064 -0.512,1.914 -2.507,3.348 -4.342,4.659 -1.615,1.153 -2.913,2.461 -3.786,3.986 0.201,-0.752 0.526,-1.494 0.782,-2.229 0.025,-0.07 -0.042,-0.108 -0.12,-0.113 -0.075,-0.068 -0.218,-0.093 -0.328,-0.005 -2.025,1.562 -3.63,3.242 -4.066,5.435 -0.529,2.672 2.409,4.989 3.016,7.511 0.853,3.52 -3.309,5.011 -6.533,6.653 0.419,-1.361 0.491,-2.823 0.432,-3.963 -0.133,-2.682 -2.364,-4.978 -2.587,-7.659 -0.236,-2.903 1.864,-5.801 5.031,-7.353 0.266,-0.13 0.024,-0.393 -0.243,-0.346 -0.672,0.125 -1.284,0.324 -1.843,0.574 -3.051,0.557 -5.77,2.126 -6.949,4.122 -0.221,-2.532 0.443,-4.984 4.031,-6.175 0.183,-0.06 0.088,-0.261 -0.105,-0.218 -0.419,0.095 -0.814,0.226 -1.19,0.378 -1.484,0.253 -2.775,0.875 -3.886,1.652 -0.326,0.231 -0.667,0.517 -0.973,0.838 0.17,-4.447 -6.188,-8.619 -3.274,-12.796 0.72,-0.591 1.481,-1.177 2.246,-1.775 0.11,-0.087 -0.037,-0.24 -0.183,-0.193 -2.993,1.012 -7.042,3.946 -7.699,6.837 -2.005,-1.821 -3.284,-3.902 -2.86,-6.667 0.569,-3.731 3.312,-6.932 3.462,-10.777 0.189,-4.759 -2.995,-11.735 -9.48,-13.541 -0.144,-0.085 -0.286,-0.169 -0.437,-0.254 -0.11,-0.06 -0.233,0.013 -0.235,0.09 -0.136,-0.03 -0.268,-0.059 -0.406,-0.084 -0.126,-0.022 -0.188,0.13 -0.065,0.163 0.356,0.094 0.697,0.209 1.028,0.331 5.956,4.118 -0.231,9.844 -3.578,13.894 -1.371,1.661 -2.711,3.366 -3.296,5.285 -0.106,0.348 -0.184,0.732 -0.234,1.136 -0.723,-0.711 -1.646,-1.333 -2.66,-1.751 -0.335,-0.138 -4.385,-1.605 -4.438,-1.001 0.003,-0.02 -0.017,-0.038 -0.045,-0.035 -0.042,0.002 -0.083,0.005 -0.124,0.008 -0.182,0.011 -0.167,0.191 -0.013,0.223 0.488,0.101 0.945,0.232 1.384,0.368 2.495,1.803 2.729,4.162 2.752,6.701 0.025,2.863 -2.328,4.75 -4.881,6.618 -1.39,1.018 -3.504,2.829 -4.6,4.702 -0.453,-1.371 0.54,-2.635 1.649,-4.191 1.344,-1.884 0.588,-3.751 -1.337,-5.152 -0.12,-0.09 -0.264,0.045 -0.197,0.138 0.656,0.909 0.825,1.688 0.717,2.403 -0.242,0.629 -0.686,1.212 -1.261,1.717 -0.179,0.153 -0.378,0.292 -0.585,0.42 0.075,-0.196 0.146,-0.381 0.201,-0.549 1.216,-3.723 -2.832,-7.934 1.635,-11.104 0.144,-0.107 -0.052,-0.304 -0.229,-0.244 -0.169,0.063 -0.331,0.129 -0.486,0.2 -0.031,-0.003 -0.065,0 -0.101,0.015 -1.46,0.652 -2.785,1.48 -4.022,2.353 -0.157,0.113 -0.319,0.228 -0.483,0.35 0.455,-0.801 0.814,-1.594 1.069,-2.301 1.273,-3.517 0.262,-7.708 -3.014,-10.458 -0.111,-0.093 -0.38,-0.02 -0.288,0.115 0.298,0.431 0.566,0.864 0.809,1.302 0.42,1.227 0.609,2.23 -0.129,3.543 -0.492,0.876 -1.379,1.677 -2.124,2.444 -0.479,0.494 -1.03,0.929 -1.609,1.336 1.826,-2.082 2.479,-4.445 1.616,-7.284 -1.455,-4.79 -10.243,-10.27 -5.166,-15.251 0.075,-0.073 -0.057,-0.191 -0.156,-0.125 -0.392,0.262 -0.716,0.538 -1.006,0.822 -0.049,-0.055 -0.142,-0.09 -0.218,-0.038 -1.564,1.062 -2.861,2.183 -3.436,3.735 -0.063,0.17 -0.146,0.391 -0.224,0.637 -0.904,-1.216 -1.085,-2.72 -0.891,-4.11 0.386,-2.743 1.954,-4.597 4.913,-6.155 0.061,-0.032 0.009,-0.11 -0.062,-0.087 -0.102,0.034 -0.196,0.071 -0.295,0.106 0,-0.05 -0.057,-0.1 -0.146,-0.083 -5.94,1.06 -12.111,3.798 -14.597,8.155 -1.342,2.353 -1.087,4.811 -0.286,7.221 0.557,1.668 1.394,3.287 1.057,5.034 -0.258,1.337 -1.496,2.323 -2.836,3.16 0.076,-1.622 -0.432,-3.283 -1.205,-4.823 -0.905,-1.796 -3.665,-4.227 -6.528,-3.951 -0.17,-0.036 -0.336,-0.079 -0.514,-0.109 -0.092,-0.014 -0.127,0.087 -0.046,0.113 4.095,1.444 4.934,4.53 4.391,7.69 -0.247,1.435 -0.928,2.823 -1.837,4.09 -1.081,1.509 -2.827,2.328 -4.748,3.039 -0.153,-1.013 0.162,-1.91 0.82,-2.804 0.135,-0.085 0.263,-0.176 0.407,-0.262 0.187,-0.113 -0.017,-0.331 -0.216,-0.227 -2.176,1.112 -3.713,2.437 -4.412,4.369 -0.036,0.1 -0.071,0.206 -0.103,0.311 -0.181,-0.381 -0.381,-0.73 -0.58,-1.024 -1.284,-1.89 -3.269,-2.628 -5.639,-2.789 -0.537,-0.106 -1.124,-0.15 -1.773,-0.117 -0.07,0.003 -0.084,0.063 -0.045,0.093 -0.219,0.009 -0.442,0.019 -0.668,0.032 -0.143,0.011 -0.156,0.187 -0.01,0.193 1.067,0.054 2.021,0.179 2.877,0.409 1.234,0.582 1.881,1.493 2.258,2.835 0.402,1.427 0.128,2.956 -0.531,4.315 -1.181,2.434 -3.937,4.294 -5.638,6.517 -0.64,0.836 -1.079,2.2 -1.084,3.534 -0.868,-1.589 -0.852,-3.219 0.504,-4.721 0.077,-0.083 -0.058,-0.218 -0.172,-0.14 -0.124,0.086 -0.241,0.171 -0.353,0.259 -0.081,-0.042 -0.19,-0.058 -0.282,-0.006 -4.051,2.179 -5.174,5.713 -3.102,9.07 1.203,1.95 3.078,3.575 3.31,5.806 0.14,1.329 -0.525,2.427 -1.567,3.302 0.1,-0.835 -0.02,-1.692 -0.291,-2.512 -1.371,-4.104 -7.848,-8.01 -5.079,-12.482 0.063,-0.103 -0.123,-0.181 -0.218,-0.101 -0.4,0.354 -0.715,0.712 -0.963,1.073 -0.043,0 -0.082,0.015 -0.11,0.045 -1.226,1.399 -2.201,2.86 -2.551,4.417 -0.351,-1.048 -0.893,-2.068 -1.409,-2.943 -1.985,-3.357 -4.192,-7.172 -1.43,-10.634 0.093,-0.117 -0.139,-0.256 -0.268,-0.168 -0.409,0.279 -0.753,0.583 -1.05,0.905 -1.217,0.835 -2.287,1.904 -2.82,3.091 0.163,-1.088 0.774,-2.157 1.632,-3.036 0.105,-0.111 -0.078,-0.281 -0.228,-0.183 -0.268,0.173 -0.524,0.36 -0.762,0.556 -0.055,-0.018 -0.117,-0.014 -0.171,0.023 -0.716,0.495 -1.381,1.129 -1.908,1.832 -0.016,-0.968 -0.147,-1.88 -0.332,-2.61 -0.584,-2.308 -2.008,-4.34 -3.674,-6.3 -2.617,-3.079 -2.989,-6.266 0.424,-9.109 0.135,-0.113 -0.074,-0.25 -0.229,-0.182 -0.346,0.153 -0.662,0.33 -0.96,0.513 -1.538,0.565 -3.035,1.899 -3.945,3.418 -0.381,-3 0.523,-5.882 3.919,-8.261 0.19,-0.088 0.378,-0.181 0.568,-0.267 0.155,-0.07 0.017,-0.246 -0.142,-0.204 -4.915,1.266 -8.466,4.164 -10.336,7.762 -1.075,2.067 -0.5,3.973 0.082,6.054 0.538,1.934 -0.182,3.931 -2.743,4.831 -0.372,0.131 -0.748,0.232 -1.125,0.326 1.005,-1.524 0.568,-4.115 -0.218,-5.345 -0.043,-0.07 -0.157,-0.089 -0.241,-0.069 -0.014,-0.022 -0.02,-0.047 -0.035,-0.073 -0.046,-0.078 -0.227,-0.06 -0.206,0.035 0.337,1.514 -0.322,2.767 -1.415,4.005 -0.429,0.486 -1.007,0.876 -1.577,1.266 -0.016,-0.933 -0.415,-1.899 -0.98,-2.67 -0.236,-0.514 -0.625,-0.994 -1.213,-1.414 -0.095,-0.067 -0.258,0.022 -0.208,0.113 3.166,5.612 -8.35,7.636 -8.571,12.776 -0.089,2.071 1.198,3.73 3.051,5.2 1.749,1.384 6.167,4.174 4.087,6.393 -0.326,-0.228 -0.687,-0.431 -1.069,-0.604 -1.045,-0.474 -2.33,-0.073 -3.408,0.158 -0.006,0.005 -0.009,0.01 -0.015,0.01 -0.424,0.075 -0.837,0.2 -1.219,0.366 -0.177,0.078 -0.018,0.281 0.165,0.23 3.274,-0.882 4.726,1.66 3.61,3.49 -0.682,1.118 -2.225,0.953 -3.439,1.273 -2.017,0.304 -3.85,0.647 -5.809,1.71 -0.849,0.461 -1.584,1.022 -2.221,1.642 l 0.114,13.415 0.248,29.677 250.261,-2.091 -0.387,-45.579 -0.082,-9.837 c -0.083,-0.274 -0.161,-0.512 -0.229,-0.707 z"
   id="path5" />
			
				<linearGradient
   id="SVGID_00000031188304603877873030000006121736137572424609_"
   gradientUnits="userSpaceOnUse"
   x1="79.433098"
   y1="41.3246"
   x2="79.433098"
   y2="82.171501"
   gradientTransform="matrix(1.3283,-0.0027,-0.0027,1,-14.7896,0.2711)">
				<stop
   offset="0"
   style="stop-color:#FFFDD8"
   id="stop6" />
				<stop
   offset="0.4458"
   style="stop-color:#FFF55B"
   id="stop7" />
				<stop
   offset="1"
   style="stop-color:#FF7900"
   id="stop8" />
			</linearGradient>
			<path
   style="opacity:0.5;fill:#d61000;fill-opacity:1"
   d="m 97.447,66.512 c -0.625,-1.132 -1.381,-2.207 -1.949,-3.357 -1.043,-2.109 -0.243,-3.677 1.42,-5.449 0.021,-0.022 0.026,-0.05 0.025,-0.075 0.009,-0.007 0.018,-0.015 0.029,-0.022 0.085,-0.07 -0.048,-0.158 -0.146,-0.115 -0.016,0.007 -0.027,0.015 -0.042,0.02 -0.027,0 -0.056,0.002 -0.082,0.02 -0.03,0.021 -0.06,0.039 -0.089,0.059 -2.213,1.019 -3.805,2.617 -4.411,4.351 0.063,-2.422 1.377,-4.923 2.384,-7.531 1.479,-3.839 1.274,-8.536 -2.137,-11.786 -0.029,-0.028 -0.069,-0.038 -0.11,-0.04 -0.425,-0.428 -0.885,-0.825 -1.349,-1.175 -0.124,-0.095 -0.305,0.05 -0.219,0.153 1.359,1.584 2.411,2.936 2.284,4.894 -0.107,1.656 -1.719,3.321 -2.82,4.705 -1.835,2.31 -3.308,4.487 -3.669,7.192 -0.103,0.768 -0.098,1.703 0.052,2.673 -0.18,-0.15 -0.356,-0.307 -0.528,-0.483 -1.549,-1.598 -0.801,-3.824 0.086,-5.621 0.383,-0.435 0.761,-0.871 1.089,-1.326 0.085,-0.118 -0.153,-0.22 -0.262,-0.12 -2.262,2.093 -4.257,3.695 -5.009,6.401 -0.667,2.4 0.022,5.167 1.607,7.279 1.55,2.061 3.709,3.788 5.44,5.756 2.428,2.773 2.751,6.954 -1.238,9.02 -0.168,0.088 -0.074,0.333 0.144,0.296 0.984,-0.158 1.781,-0.437 2.423,-0.797 4.854,-1.118 8.968,-4.806 8.968,-8.664 0.001,-2.22 -0.766,-4.226 -1.891,-6.258 z"
   id="path8" />
			
				<linearGradient
   id="SVGID_00000000184378769356101150000004062625362902681738_"
   gradientUnits="userSpaceOnUse"
   x1="59.504101"
   y1="76.783302"
   x2="59.504101"
   y2="88.1287"
   gradientTransform="matrix(1.3283,-0.011,0.0083,1,-11.9016,-12.2105)">
				<stop
   offset="0"
   style="stop-color:#FFFDD8"
   id="stop9" />
				<stop
   offset="0.4458"
   style="stop-color:#FFF55B"
   id="stop10" />
				<stop
   offset="1"
   style="stop-color:#FF7900"
   id="stop11" />
			</linearGradient>
			<path
   style="opacity:0.5;fill:#d61000;fill-opacity:1"
   d="m 68.928,63.909 c 0,0 -2.351,1.266 -0.726,3.635 1.627,2.372 3.546,6.017 -2.346,7.736 0,0 2.164,-1.261 1.665,-4.282 -0.497,-3.018 -3.161,-5.377 1.407,-7.089 z"
   id="path11" />
			
				<linearGradient
   id="SVGID_00000108291975908199117100000011812855546974657675_"
   gradientUnits="userSpaceOnUse"
   x1="30.854601"
   y1="78.671402"
   x2="30.854601"
   y2="97.734299"
   gradientTransform="matrix(1.3283,-0.011,0.0083,1,-11.9016,-12.2105)">
				<stop
   offset="0"
   style="stop-color:#FFFDD8"
   id="stop12" />
				<stop
   offset="0.4458"
   style="stop-color:#FFF55B"
   id="stop13" />
				<stop
   offset="1"
   style="stop-color:#FF7900"
   id="stop14" />
			</linearGradient>
			<path
   style="opacity:0.3;fill:#d61000;fill-opacity:1"
   d="m 29.783,66.121 c 0,0 1.62,1.553 0.042,4.982 -1.576,3.425 -0.059,4.267 2.606,6.518 2.665,2.256 3.451,5.806 -0.786,7.548 0,0 1.12,-1.504 -1.727,-3.046 -4.076,-2.206 -7.182,-5.395 -2.542,-10.293 2.714,-2.865 2.797,-4.359 2.407,-5.709 z"
   id="path14" />
			
				<linearGradient
   id="SVGID_00000072989665157615393120000014555001566988974258_"
   gradientUnits="userSpaceOnUse"
   x1="69.2696"
   y1="107.1191"
   x2="69.2696"
   y2="117.9295"
   gradientTransform="matrix(1.3283,-0.011,0.0083,1,-11.9016,-12.2105)">
				<stop
   offset="0"
   style="stop-color:#FFFDD8"
   id="stop15" />
				<stop
   offset="0.4458"
   style="stop-color:#FFF55B"
   id="stop16" />
				<stop
   offset="1"
   style="stop-color:#FF7900"
   id="stop17" />
			</linearGradient>
			<path
   style="opacity:0.3;fill:#d61000;fill-opacity:1"
   d="m 83.021,94.13 c 0,0 0.764,0.92 -0.356,2.777 -1.116,1.857 -0.731,2.635 0.035,3.981 0.768,1.346 0.497,2.84 -1.667,4.069 0,0 0.756,0.067 -0.862,-1.557 -1.62,-1.622 -2.016,-3.47 -0.142,-5.475 1.874,-2.008 2.815,-2.442 2.992,-3.795 z"
   id="path17" />
			
				<linearGradient
   id="SVGID_00000078026665998653339630000006181409194723647362_"
   gradientUnits="userSpaceOnUse"
   x1="116.2346"
   y1="96.161797"
   x2="116.2346"
   y2="125.6803"
   gradientTransform="matrix(1.3283,-0.011,0.0083,1,-11.9016,-12.2105)">
				<stop
   offset="0"
   style="stop-color:#FFFDD8"
   id="stop18" />
				<stop
   offset="0.4458"
   style="stop-color:#FFF55B"
   id="stop19" />
				<stop
   offset="1"
   style="stop-color:#FF7900"
   id="stop20" />
			</linearGradient>
			<path
   style="opacity:0.3;fill:#d61000;fill-opacity:1"
   d="m 137.971,112.237 c 0,0 2.82,-1.8 0.424,-5.836 -2.394,-4.037 -4.851,-4.087 -2.43,-8.09 2.424,-4.003 5.741,-2.609 3.54,-6.289 0,0 3.319,1.539 1.744,5.535 0,0 1.695,-0.867 1.193,-4.492 -0.504,-3.623 -0.434,-6.611 9.266,-10.462 0,0 -7.13,6.104 -4.241,12.838 0,0 -1.439,-2.976 3.926,-5.295 0,0 -2.723,1.94 -0.712,5.267 2.01,3.327 3.589,11.278 -12.71,16.824 z"
   id="path20" />
			
				<linearGradient
   id="SVGID_00000116955472721006932790000009940229943070619787_"
   gradientUnits="userSpaceOnUse"
   x1="138.52789"
   y1="93.427597"
   x2="138.52789"
   y2="104.0721"
   gradientTransform="matrix(1.3283,-0.0027,-0.0027,1,-14.7896,0.2711)">
				<stop
   offset="0"
   style="stop-color:#FFFDD8"
   id="stop21" />
				<stop
   offset="0.4458"
   style="stop-color:#FFF55B"
   id="stop22" />
				<stop
   offset="1"
   style="stop-color:#FF7900"
   id="stop23" />
			</linearGradient>
			<path
   style="opacity:0.3;fill:#d61000;fill-opacity:1"
   d="m 171.186,99.838 c -0.892,-1.313 -1.97,-2.043 -1.155,-3.632 0.374,-0.72 0.584,-1.381 0.301,-2.106 -0.048,-0.243 -0.17,-0.491 -0.401,-0.742 -0.072,-0.078 -0.223,-0.013 -0.188,0.078 0.496,1.279 -0.87,2.191 -1.9,3.063 -0.712,0.597 -1.144,1.279 -1.401,2.053 -0.261,0.785 -0.107,1.624 0.311,2.354 0.625,1.088 2.675,1.429 2.57,2.757 0,0.04 0.02,0.075 0.05,0.101 -0.03,0.037 -0.065,0.072 -0.091,0.107 -0.045,0.063 0.065,0.126 0.136,0.083 1.679,-0.977 2.792,-2.607 1.768,-4.116 z"
   id="path23" />
			
				<linearGradient
   id="SVGID_00000091008748927133411900000011514018957226603914_"
   gradientUnits="userSpaceOnUse"
   x1="146.7778"
   y1="72.208504"
   x2="146.7778"
   y2="92.9328"
   gradientTransform="matrix(1.3283,-0.0027,-0.0027,1,-14.7896,0.2711)">
				<stop
   offset="0"
   style="stop-color:#FFFDD8"
   id="stop24" />
				<stop
   offset="0.4458"
   style="stop-color:#FFF55B"
   id="stop25" />
				<stop
   offset="1"
   style="stop-color:#FF7900"
   id="stop26" />
			</linearGradient>
			<path
   style="opacity:0.5;fill:#d61000;fill-opacity:1"
   d="m 185.24,72.202 c 0.083,-0.065 -0.045,-0.166 -0.14,-0.115 -0.07,0.04 -0.138,0.08 -0.211,0.123 -0.048,-0.02 -0.105,-0.018 -0.158,0.018 -0.133,0.088 -0.243,0.186 -0.363,0.278 -2.011,1.186 -3.585,2.51 -4.73,4.287 -0.315,0.494 -0.619,1.07 -0.819,1.669 -0.058,-0.268 -0.086,-0.549 -0.105,-0.84 -0.136,-1.785 1.008,-2.815 2.336,-4.141 0.065,-0.068 -0.05,-0.173 -0.143,-0.113 -0.203,0.13 -0.398,0.268 -0.584,0.409 -3.385,1.855 -6.982,5.731 -5.164,8.917 0.782,1.371 2.381,2.396 3.484,3.615 1.672,1.842 1.494,4.269 0.085,6.16 -0.03,0.035 -0.015,0.072 0.018,0.105 -0.083,0.05 -0.168,0.103 -0.248,0.153 -0.05,0.03 -0.01,0.103 0.056,0.081 3.86,-1.509 6.492,-4.27 6.548,-7.594 0.04,-2.181 -1.47,-4.209 -1.9,-6.34 -0.461,-2.274 -0.101,-4.56 1.75,-6.445 0.096,-0.077 0.193,-0.152 0.288,-0.227 z"
   id="path26" />
			
				<linearGradient
   id="SVGID_00000033352692301308992340000006677884438149148577_"
   gradientUnits="userSpaceOnUse"
   x1="154.8291"
   y1="67.639"
   x2="154.8291"
   y2="80.788101"
   gradientTransform="matrix(1.3283,-0.0027,-0.0027,1,-14.7896,0.2711)">
				<stop
   offset="0"
   style="stop-color:#FFFDD8"
   id="stop27" />
				<stop
   offset="0.4458"
   style="stop-color:#FFF55B"
   id="stop28" />
				<stop
   offset="1"
   style="stop-color:#FF7900"
   id="stop29" />
			</linearGradient>
			<path
   style="opacity:0.5;fill:#d61000;fill-opacity:1"
   d="m 191.889,72.863 c -0.672,-0.597 -1.133,-1.291 -1.459,-2.03 -0.451,-1.018 -0.024,-1.89 0.532,-2.818 0,0 0,0 0,-0.005 0.144,-0.141 0.283,-0.281 0.405,-0.426 0.056,-0.06 -0.053,-0.13 -0.115,-0.07 -0.133,0.125 -0.275,0.246 -0.424,0.371 -0.032,0 -0.063,0.01 -0.087,0.033 -0.051,0.04 -0.091,0.085 -0.141,0.128 -0.035,-0.041 -0.115,-0.058 -0.178,-0.013 -1.939,1.459 -3.518,3.252 -2.976,5.387 0.248,0.973 1.098,1.84 1.749,2.678 1.129,1.459 1.003,2.843 -0.178,4.262 -0.043,0.055 -0.03,0.12 0.015,0.165 -0.007,0.005 -0.012,0.005 -0.02,0.01 -0.067,0.04 -0.013,0.13 0.067,0.105 2.385,-0.808 4.964,-2.301 4.916,-4.473 -0.028,-1.388 -0.96,-2.278 -2.106,-3.304 z"
   id="path29" />
			
				<linearGradient
   id="SVGID_00000057849443825356918760000004905216219726800801_"
   gradientUnits="userSpaceOnUse"
   x1="160.7764"
   y1="74.869698"
   x2="160.7764"
   y2="80.830597"
   gradientTransform="matrix(1.3283,-0.0027,-0.0027,1,-14.7896,0.2711)">
				<stop
   offset="0"
   style="stop-color:#FFFDD8"
   id="stop30" />
				<stop
   offset="0.4458"
   style="stop-color:#FFF55B"
   id="stop31" />
				<stop
   offset="1"
   style="stop-color:#FF7900"
   id="stop32" />
			</linearGradient>
			<path
   style="opacity:0.5;fill:#d61000;fill-opacity:1"
   d="m 200.159,74.831 c 0.01,-0.01 0.01,-0.017 0.01,-0.028 0.061,-0.053 -0.022,-0.128 -0.107,-0.09 -1.23,0.521 -2.184,1.21 -2.843,2.156 -0.808,1.153 0.449,2.452 -0.248,3.572 -0.025,0.04 -0.005,0.08 0.035,0.108 -0.02,0.015 -0.04,0.03 -0.061,0.045 -0.042,0.033 0.016,0.09 0.07,0.073 0.973,-0.329 2.083,-0.833 2.417,-1.657 0.4,-0.993 0.01,-1.978 0.013,-2.98 0.143,-0.419 0.341,-0.82 0.714,-1.199 z"
   id="path32" />
			
				<linearGradient
   id="SVGID_00000110467904489509284470000012021081955237983922_"
   gradientUnits="userSpaceOnUse"
   x1="156.0275"
   y1="87.213303"
   x2="156.0275"
   y2="100.2429"
   gradientTransform="matrix(1.3283,-0.0027,-0.0027,1,-14.7896,0.2711)">
				<stop
   offset="0"
   style="stop-color:#FFFDD8"
   id="stop33" />
				<stop
   offset="0.4458"
   style="stop-color:#FFF55B"
   id="stop34" />
				<stop
   offset="1"
   style="stop-color:#FF7900"
   id="stop35" />
			</linearGradient>
			<path
   style="opacity:0.3;fill:#d61000;fill-opacity:1"
   d="m 195.216,92.217 c 0.045,-2.071 -1.422,-3.595 -2.673,-5.154 1.276,1.589 0.464,2.831 -1.253,3.931 -0.845,0.536 -1.782,1.186 -2.003,2.045 -0.236,0.917 0.05,1.672 0.639,2.475 1.086,1.471 2.966,2.048 2.244,3.883 -0.096,0.241 -0.376,0.466 -0.491,0.697 0.045,-0.09 1.147,-0.451 1.341,-0.647 0.379,-0.383 0.451,-0.835 0.496,-1.294 0.096,-0.975 -0.365,-2.038 0.273,-2.953 0.715,-1.03 1.399,-1.77 1.427,-2.983 z"
   id="path35" />
			
				<linearGradient
   id="SVGID_00000158004422240154142610000015902674987572583558_"
   gradientUnits="userSpaceOnUse"
   x1="186.01759"
   y1="76.041"
   x2="186.01759"
   y2="104.6769"
   gradientTransform="matrix(1.3283,-0.0027,-0.0027,1,-14.7896,0.2711)">
				<stop
   offset="0"
   style="stop-color:#FFFDD8"
   id="stop36" />
				<stop
   offset="0.4458"
   style="stop-color:#FFF55B"
   id="stop37" />
				<stop
   offset="1"
   style="stop-color:#FF7900"
   id="stop38" />
			</linearGradient>
			<path
   style="opacity:0.3;fill:#d61000;fill-opacity:1"
   d="m 239.964,80.249 c 0.048,-0.035 -0.024,-0.09 -0.075,-0.065 -0.263,0.15 -0.504,0.309 -0.731,0.477 -1.269,0.619 -2.5,1.529 -3.217,2.592 0.136,-0.481 0.384,-0.953 0.715,-1.464 0.406,-0.617 0.93,-1.088 1.155,-1.689 0.925,-1.319 1.093,-2.948 0.246,-4.277 -0.025,-0.038 -0.11,-0.03 -0.104,0.018 0.374,2.043 -2,2.567 -3.66,3.752 -1.469,1.048 -2.557,2.271 -3.133,3.743 -0.637,1.627 0.386,3.221 -0.59,4.836 -0.24,0.401 -0.514,0.812 -0.714,1.233 0.192,-0.662 0.506,-1.329 0.574,-1.84 0.133,-0.978 -0.276,-1.98 -1.061,-2.753 -0.236,-0.23 -0.454,-0.477 -0.785,-0.604 1.534,2.019 -0.787,2.75 -2.566,3.994 -1.151,0.802 -1.697,2.001 -1.838,3.149 -0.351,2.79 2.326,4.958 5.47,6.084 -0.197,-0.521 -0.471,-1.015 -0.506,-1.597 0.188,0.496 0.451,0.98 0.749,1.466 0.474,0.765 0.723,1.637 0.688,2.484 -0.033,0.857 -0.331,1.695 -0.903,2.324 1.5,-0.77 2.771,-1.74 3.319,-3.071 0.028,0.477 0.013,0.958 -0.098,1.474 -0.351,1.645 -1.446,2.843 -3.063,3.931 -0.063,0.043 1.269,-0.208 1.527,-0.318 4.311,-1.855 6.711,-4.911 7.237,-8.556 0.394,-2.743 -0.534,-5.046 -1.091,-7.691 -0.178,-0.847 -0.203,-1.705 -0.123,-2.557 0.176,-1.826 0.876,-3.717 2.578,-5.075 z"
   id="path38" />
			
				<linearGradient
   id="SVGID_00000047043709126862412340000001307073254217101985_"
   gradientUnits="userSpaceOnUse"
   x1="185.7834"
   y1="78.267197"
   x2="185.7834"
   y2="88.774696"
   gradientTransform="matrix(1.3283,-0.011,0.0083,1,-11.9016,-12.2105)">
				<stop
   offset="0"
   style="stop-color:#FFFDD8"
   id="stop39" />
				<stop
   offset="0.4458"
   style="stop-color:#FFF55B"
   id="stop40" />
				<stop
   offset="1"
   style="stop-color:#FF7900"
   id="stop41" />
			</linearGradient>
			<path
   style="opacity:0.5;fill:#d61000;fill-opacity:1"
   d="m 237.34,63.998 c 0,0 -1.793,1.482 -0.602,4.22 1.193,2.735 1.848,4.916 -1.115,6.302 0,0 0.491,-0.378 -0.862,-1.542 -1.357,-1.158 -1.777,-2.81 -0.822,-4.949 1.182,-2.652 3.401,-4.031 3.401,-4.031 z"
   id="path41" />
			
				<linearGradient
   id="SVGID_00000103944779353376577900000005258529129302483389_"
   gradientUnits="userSpaceOnUse"
   x1="87.9711"
   y1="76.697601"
   x2="87.9711"
   y2="87.597"
   gradientTransform="matrix(1.3283,-0.0027,-0.0027,1,-14.7896,0.2711)">
				<stop
   offset="0"
   style="stop-color:#FFFDD8"
   id="stop42" />
				<stop
   offset="0.4458"
   style="stop-color:#FFF55B"
   id="stop43" />
				<stop
   offset="1"
   style="stop-color:#FF7900"
   id="stop44" />
			</linearGradient>
			<path
   style="opacity:0.5;fill:#d61000;fill-opacity:1"
   d="m 104.943,77.215 c -0.007,-0.04 -0.008,-0.075 -0.017,-0.115 -0.009,-0.04 -0.05,-0.065 -0.095,-0.075 -0.057,-0.09 -0.116,-0.183 -0.179,-0.271 -0.049,-0.065 -0.179,-0.008 -0.149,0.058 0.057,0.123 0.107,0.248 0.15,0.374 -0.323,2.229 -3.415,3.129 -5.231,4.65 -1.941,1.634 -1.313,3.913 -0.298,5.748 0.019,0.035 0.061,0.045 0.098,0.04 0.097,0.03 0.217,0.003 0.248,-0.098 0.419,-1.281 2.196,-1.692 3.429,-2.454 0.966,-0.597 1.624,-1.605 1.968,-2.487 0.675,-1.725 1.013,-3.682 0.076,-5.37 z"
   id="path44" />
		</g>
		
			<linearGradient
   id="SVGID_00000119103237255731146170000006551581827293889969_"
   gradientUnits="userSpaceOnUse"
   x1="101.6967"
   y1="78.6017"
   x2="101.6967"
   y2="136.76891"
   gradientTransform="matrix(1.3283,-0.011,0.0083,1,-11.9016,-12.2105)">
			<stop
   offset="0.0481"
   style="stop-color:#FFFFFF"
   id="stop45" />
			<stop
   offset="0.4142"
   style="stop-color:#FF7900"
   id="stop46" />
			<stop
   offset="0.9575"
   style="stop-color:#A90900"
   id="stop47" />
		</linearGradient>
		<path
   style="fill:#d61000;fill-opacity:1"
   d="m 245.324,93.215 c 0.098,0.248 -0.334,0.351 -0.52,0.171 -1.762,-1.748 -4.104,-4.189 -4.227,-6.541 -0.639,1.251 -1.045,2.56 -1.008,3.926 0.063,2.153 0.83,4.234 1.439,6.322 1.09,3.748 -1.254,6.901 -5.538,8.822 -0.253,0.115 -0.514,-0.101 -0.389,-0.286 1.374,-2.036 1.048,-4.089 0.229,-6.117 -0.251,3.264 -3.861,5.986 -7.837,7.203 -0.286,0.087 -0.443,-0.209 -0.278,-0.354 3.091,-2.703 1.862,-6.192 -1.281,-8.454 -1.398,-1.008 -3.243,-2.166 -3.534,-3.643 -0.918,1.685 -1.313,3.698 -0.123,5.264 0.198,0.216 0.403,0.432 0.606,0.649 0.186,0.201 -0.233,0.449 -0.441,0.263 -0.018,-0.012 -0.027,-0.027 -0.045,-0.043 v 0 c -0.002,-0.002 -0.007,-0.007 -0.01,-0.01 -0.193,-0.171 -0.358,-0.356 -0.509,-0.542 -1.635,-1.734 -3.239,-3.52 -2.916,-5.773 0.369,-2.589 2.515,-4.316 4.127,-6.505 0.947,-1.289 1.469,-2.604 1.123,-4.071 -0.248,-1.073 -0.707,-2.101 -0.985,-3.164 -0.248,-0.968 -0.266,-1.84 0.035,-2.627 -1.811,1.552 -3.131,3.412 -2.191,5.467 0.108,0.266 -0.429,0.378 -0.546,0.118 -1.276,-3.104 -1.65,-6.773 -0.099,-9.877 0.98,-1.965 2.628,-3.615 4.172,-5.327 -0.208,0.09 -0.413,0.183 -0.609,0.278 -2.051,0.993 -3.83,2.233 -5.294,3.698 -1.384,1.384 -2.276,3.088 -2.623,4.851 -1.107,-1.293 -2.694,-2.366 -4.372,-2.973 -0.125,-0.042 -0.237,0.095 -0.127,0.161 0.093,0.052 0.173,0.11 0.261,0.166 3.166,4.327 -2.78,7.679 -3.874,11.614 -0.122,0.441 -0.133,0.913 -0.05,1.381 -1.068,-1.108 -1.477,-2.474 -0.777,-4.001 0.612,-1.331 1.203,-2.773 1.211,-4.187 0.013,-2.04 -0.902,-5.187 -3.395,-6.393 -0.024,-0.035 -0.042,-0.065 -0.067,-0.101 -0.05,-0.06 -0.128,-0.05 -0.186,-0.015 -0.025,0 -0.048,0.015 -0.04,0.035 -0.013,0.015 -0.022,0.035 -0.02,0.056 -0.063,0.025 -0.11,0.08 -0.077,0.135 0.072,0.12 0.138,0.246 0.2,0.366 0.208,1.008 -0.032,1.971 -0.488,2.903 0.147,-1.254 0.024,-2.522 -0.246,-3.638 -0.101,-0.406 -0.235,-0.85 -0.403,-1.311 0.013,0.672 -0.043,1.338 -0.193,2.001 -0.323,1.424 -1.256,2.813 -0.547,4.239 0.113,0.223 -0.391,0.389 -0.516,0.168 -0.011,-0.015 -0.018,-0.035 -0.028,-0.05 h -0.002 c -0.003,-0.005 -0.003,-0.01 -0.005,-0.015 -0.526,-0.935 -0.892,-1.88 -1.063,-2.868 -0.389,1.143 -0.112,2.186 0.865,3.274 0.797,0.888 1.798,1.77 2.294,2.788 1.12,2.296 -0.597,4.257 -2.675,5.881 -0.166,0.133 -0.494,0.04 -0.484,-0.146 0.068,-1.664 -1.28,-3.354 -3.487,-3.68 1.868,2.011 3.284,4.538 2.455,7.02 -0.94,2.815 -3.342,5.217 -3.219,8.22 0.01,0.2 -0.404,0.308 -0.524,0.113 -0.797,-1.274 -1.061,-2.597 -0.843,-3.954 -1.864,2.043 -2.635,4.254 -2.018,6.799 0.065,0.274 -0.414,0.374 -0.547,0.115 -1.07,-2.071 -2.83,-3.974 -3.672,-6.109 -0.787,-2.001 -0.371,-3.991 0.734,-5.891 1.677,-2.878 2.607,-5.751 1.105,-8.789 -0.822,-1.67 -1.745,-3.287 -1.088,-4.878 -0.953,0.817 -1.695,1.765 -1.916,2.868 -0.301,1.519 0.196,2.955 0.592,4.432 0.318,1.188 0.59,2.422 0.08,3.61 -0.526,1.224 -1.453,2.086 -2.576,3.034 -1.673,1.414 -2.676,2.788 -1.758,4.688 0.549,1.143 1.502,2.354 1.477,3.607 -0.05,2.504 -2.728,3.798 -4.156,5.853 -0.145,0.211 -0.627,0.068 -0.517,-0.16 1.865,-3.88 -4.257,-5.806 -4.948,-9.218 -1.083,1.635 -1.958,3.442 -0.427,5.086 0.198,0.21 -0.21,0.401 -0.446,0.261 -2.437,-1.449 -5.618,-4.234 -5.041,-6.733 -0.85,0.993 -1.316,2.098 -1,3.379 0.36,1.449 1.07,2.832 1.363,4.291 0.251,1.253 0.115,2.457 -0.958,3.49 -1.19,1.148 -2.835,1.955 -4.101,3.054 -0.226,0.192 -0.582,-0.051 -0.449,-0.259 1.301,-2.053 0.715,-3.963 -0.523,-5.793 0.426,2.251 -0.331,5.081 -3.314,5.713 -0.351,0.073 -0.507,-0.333 -0.153,-0.408 0.053,-0.011 0.093,-0.03 0.144,-0.043 -0.141,-0.048 -0.241,-0.163 -0.128,-0.288 2.392,-2.673 0.384,-6.929 -2.134,-9.426 0.609,2.452 0.103,4.992 -2.547,6.736 -0.171,0.113 -0.496,0.053 -0.483,-0.147 0.235,-3.465 -1.793,-6.222 -3.302,-9.376 -0.798,-1.665 -1.369,-3.595 -0.286,-5.119 -2.64,1.304 -5.58,2.878 -5.124,5.35 0.04,0.161 0.08,0.321 0.125,0.486 0.078,0.266 -0.451,0.384 -0.546,0.116 -0.053,-0.153 -0.091,-0.306 -0.123,-0.454 -0.728,-2.73 -1,-5.693 0.309,-8.35 1.098,-2.234 3.078,-3.951 5.612,-5.225 -6.081,1.667 -11.947,5.447 -11.694,10.607 0.013,0.211 -0.392,0.298 -0.526,0.113 -1.72,-2.392 0.15,-4.43 1.238,-6.719 1.128,-2.372 1.016,-5.144 -0.316,-7.471 -0.206,2.447 -1.214,4.778 -3.044,6.844 -2.016,2.276 -4.588,4.212 -7.079,6.188 -0.238,0.186 -0.572,-0.045 -0.446,-0.258 2.484,-4.272 2.933,-9.203 0.477,-13.53 -0.918,-1.624 -2.187,-3.229 -2.612,-4.989 -0.243,-1.003 -0.216,-1.956 0.045,-2.896 -2.62,3.979 -1.93,8.807 -5.665,12.492 -0.179,0.176 -0.551,-0.01 -0.476,-0.203 1.092,-2.84 -2.471,-6.515 -1.528,-9.295 -2.157,1.77 -4.001,4.044 -3.244,6.205 0.096,0.269 -0.426,0.376 -0.544,0.12 -1.052,-2.296 -1.93,-4.786 -1.517,-7.24 0.233,-1.399 0.812,-2.685 1.636,-3.891 -1.282,1.043 -2.787,2.482 -3.657,3.968 -0.453,-1.371 0.54,-2.635 1.649,-4.191 1.028,-1.444 0.822,-2.88 -0.196,-4.101 0.194,0.722 0.196,1.474 -0.067,2.247 -0.326,0.955 -0.806,1.926 -1.57,2.735 -0.79,0.835 -1.451,1.554 -1.265,2.632 0.031,0.186 -0.329,0.286 -0.482,0.155 -1.418,-1.188 -2.637,-2.484 -3.411,-3.957 0.174,2.553 2.563,4.634 3.122,7.191 0.572,2.617 -0.316,5.049 -1.823,7.411 -0.125,0.195 -0.525,0.098 -0.528,-0.103 -0.037,-2.269 -0.449,-5.493 -3.715,-6.337 1.472,4.206 1.552,8.566 -1.9,12.296 -2.977,3.224 -9.38,6.593 -7.48,11.023 0.097,0.226 -0.381,0.386 -0.517,0.168 -1.058,-1.687 -1.985,-3.437 -1.724,-5.214 -1.424,2.467 -1.123,5.089 -0.992,7.862 0.143,3.013 -0.638,5.633 -3.555,7.832 -0.159,0.12 -0.515,0.05 -0.485,-0.146 0.786,-5.335 -8.85,-12.118 -2.793,-16.799 -2.484,0.747 -5.444,2.224 -6.195,4.104 -0.102,0.356 -0.166,0.722 -0.179,1.108 -0.007,0.276 -0.542,0.276 -0.566,0.002 -0.041,-0.454 0.053,-0.893 0.236,-1.311 0.719,-2.271 2.962,-4.056 4.454,-6.114 1.799,-2.484 2.232,-5.395 2.041,-8.213 -0.655,2.868 -2.391,5.37 -5.809,7.137 -0.258,0.133 -0.496,-0.11 -0.391,-0.286 2.498,-4.197 3.526,-8.739 0.833,-13.026 -1.604,-2.552 -3.44,-4.858 -3.167,-7.644 -1.012,1.514 -1.543,3.146 -1.427,4.871 0.014,0.221 -0.388,0.291 -0.526,0.113 -1.241,-1.569 -2.373,-3.658 -2.262,-5.594 -0.595,1.154 -0.924,2.373 -0.784,3.641 0.134,1.229 0.593,2.191 1.297,3.284 0.437,0.682 0.909,1.409 0.973,2.176 0.304,3.58 -3.927,6.523 -7.181,8.694 -0.162,0.11 -0.518,0.058 -0.485,-0.146 0.416,-2.638 -0.517,-5.44 -2.6,-7.591 1.623,3.92 -1.54,7.907 -5.394,10.654 -0.242,0.17 -0.583,-0.038 -0.447,-0.256 1.662,-2.683 2.727,-5.661 1.628,-8.589 -0.819,-2.186 -2.694,-3.891 -3.799,-5.962 -0.822,-1.537 -1.515,-3.57 -1.258,-5.371 -2.27,2.122 -2.654,4.91 -1.002,7.583 1.203,1.95 3.078,3.575 3.31,5.806 0.14,1.329 -0.525,2.427 -1.567,3.302 0.1,-0.835 -0.02,-1.692 -0.291,-2.512 -1.371,-4.104 -7.848,-8.01 -5.079,-12.482 0.063,-0.103 -0.123,-0.181 -0.218,-0.101 -0.4,0.354 -0.715,0.712 -0.963,1.073 -0.043,0 -0.082,0.015 -0.11,0.045 -1.226,1.399 -2.201,2.86 -2.551,4.417 -0.351,-1.048 -0.893,-2.068 -1.409,-2.943 -1.717,-2.903 -3.595,-6.148 -2.284,-9.214 -3.762,2.951 -5.042,7.59 -4.032,11.506 0.055,0.215 -0.248,0.348 -0.47,0.21 -1.758,-1.083 -3.073,-2.522 -2.772,-4.207 -2.338,1.785 -2.665,4.162 -1.837,6.598 0.075,0.223 -0.256,0.336 -0.47,0.21 -1.621,-0.935 -2.195,-2.211 -1.628,-3.705 0.589,-1.549 2.137,-3.242 1.832,-4.906 -0.381,-2.062 -3.106,-3.429 -4.018,-5.378 -0.71,-1.518 -0.58,-2.977 0.055,-4.452 -1.303,0.827 -2.321,1.978 -2.892,3.167 -0.638,1.327 -0.562,2.491 0.013,3.816 0.849,1.958 1.21,3.65 -0.318,5.48 -1.813,2.169 -3.638,4.122 -2.819,6.841 0.711,2.364 2.684,4.312 4.045,6.468 0.098,0.156 -0.018,0.304 -0.242,0.326 -2.294,0.195 -4.135,-1.609 -4.701,-3.189 -1.961,2.564 0.886,4.748 2.665,6.967 1.417,1.768 2.216,3.612 2.396,5.676 0.022,0.241 -0.5,0.298 -0.554,0.063 -0.925,-3.946 -7.045,-4.934 -9.259,-8.263 -1.207,-1.813 -0.956,-3.768 -0.103,-5.648 0.483,-1.063 1.198,-2.181 1.265,-3.319 0.062,-1.041 -0.396,-1.903 -1.132,-2.682 0.473,1.581 -0.198,3.336 -1.574,4.59 -0.19,0.176 -0.538,-0.007 -0.475,-0.203 0.386,-1.216 0.194,-2.204 -0.741,-3.236 -0.793,-0.873 -1.595,-1.71 -2.179,-2.683 -0.891,-1.484 -0.781,-3.028 -0.201,-4.522 -3.606,4.207 1.69,9.01 0.559,13.686 -0.516,2.118 -1.889,3.763 -4.057,5.157 -1.852,1.191 -3.74,2.271 -5.002,3.8 1.993,-1.329 4.282,-2.186 7.062,-2.361 0.272,-0.015 0.341,0.23 0.202,0.361 -2.699,2.567 1.691,5.821 -1.577,8.338 -2.847,2.194 -7.313,2.911 -9.733,5.44 -0.493,0.517 -0.929,1.063 -1.326,1.63 l 0.12,14.327 c 0.035,0.027 0.068,0.058 0.106,0.085 0.165,0.125 0.06,0.293 -0.105,0.349 l 0.109,12.82 250.261,-2.091 -0.398,-47.93 c -2.346,3.98 -5.635,7.738 -3.785,12.271 z"
   id="path47" />
		
			<linearGradient
   id="SVGID_00000012434981825117652310000010665231953080233896_"
   gradientUnits="userSpaceOnUse"
   x1="59.852402"
   y1="79.267303"
   x2="58.998901"
   y2="132.6145"
   gradientTransform="matrix(1.3283,-0.011,0.0083,1,-11.9016,-12.2105)">
			<stop
   offset="0"
   style="stop-color:#FFFDD8"
   id="stop48" />
			<stop
   offset="0.4458"
   style="stop-color:#FFF55B"
   id="stop49" />
			<stop
   offset="1"
   style="stop-color:#FF7900"
   id="stop50" />
		</linearGradient>
		<path
   style="fill:#d61000;fill-opacity:1"
   d="m 1.03,124.651 c 0,0 4.224,-3.234 1.623,-9.293 -2.602,-6.062 -0.24,-11.806 3.985,-15.185 4.223,-3.379 6.589,-2.617 7.328,-4.828 0.737,-2.209 -0.59,-2.625 -0.59,-2.625 0,0 3.507,1.178 2.304,4.104 0,0 3.573,-1.737 1.737,-6.699 -1.836,-4.966 -4.982,-8.353 2.913,-13.399 0,0 -4.696,3.384 -1.059,8.972 0,0 -1.448,-3.685 2.886,-5.287 0,0 -2.63,1.943 -0.434,4.555 2.194,2.617 9.906,9.734 8.174,17.218 -1.732,7.483 -2.578,8.057 1.71,12.291 4.286,4.229 -3.783,10.985 11.708,10.502 15.49,-0.486 17.298,-8.338 12.158,-14.756 -3.056,-3.815 -4.484,-5.297 -1.682,-8.947 2.804,-3.653 2.801,-4.009 1.752,-5.422 0,0 5.127,3.159 1.949,7.312 0,0 2.729,-1.376 2.038,-4.926 -0.691,-3.55 -3.665,-8.932 6.025,-13.851 0,0 -4.409,3.738 -1.53,9.118 0,0 -0.038,-4.552 4.374,-8.072 4.41,-3.525 11.569,-5.858 8.501,-11.667 2.51,4.748 4.406,8.223 -0.409,12.439 -3.867,3.39 -7.5,7.481 -5.716,12.154 0,0 -0.504,-3.625 4.675,-5.731 0,0 -4.797,2.529 -1.539,8.052 3.259,5.52 4.588,6.363 1.805,12.362 -2.785,5.996 6.596,9.192 18.56,4.82 11.961,-4.364 13.723,-8.433 11.722,-10.408 -2,-1.976 -10.341,-5.18 -3.786,-12.347 0,0 -1.864,3.216 1.933,5.317 0,0 -2.015,-3.607 0.603,-6.901 2.619,-3.296 5.066,-4.239 4.861,-6.302 0,0 0.672,1.346 0.027,3.201 -0.646,1.855 -0.642,2.427 -0.07,3.061 0,0 -1.057,-1.983 3.347,-6.646 4.402,-4.658 7.426,-4.683 7.754,-10.449 0,0 2.598,5.525 -2.55,11.404 0,0 0.654,-0.86 2.917,-1.446 0,0 -6.852,5.46 -1.791,11.68 5.059,6.217 7.517,6.551 6.52,11.539 0,0 3.563,-3.302 1.261,-7.48 0,0 5.523,5.076 -0.272,12.522 -5.796,7.447 1.775,9.162 3.395,10.355 1.614,1.196 4.182,3.026 3.721,4.593 L 1.223,130.66 Z"
   id="path50" />
		
			<linearGradient
   id="SVGID_00000147183164334734341520000006932786273069638587_"
   gradientUnits="userSpaceOnUse"
   x1="59.852402"
   y1="79.266197"
   x2="58.998901"
   y2="132.6133"
   gradientTransform="matrix(1.3283,-0.011,0.0083,1,-11.9016,-12.2105)">
			<stop
   offset="0.0481"
   style="stop-color:#FFFFFF"
   id="stop51" />
			<stop
   offset="0.4142"
   style="stop-color:#FF7900"
   id="stop52" />
			<stop
   offset="0.9575"
   style="stop-color:#A90900"
   id="stop53" />
		</linearGradient>
		<path
   style="opacity:0.5;fill:#d61000;fill-opacity:1"
   d="m 130.144,124.962 c -1.619,-1.193 -9.191,-2.908 -3.395,-10.355 5.796,-7.446 0.272,-12.522 0.272,-12.522 2.303,4.179 -1.261,7.48 -1.261,7.48 0.997,-4.988 -1.461,-5.322 -6.52,-11.539 -1.471,-1.808 -1.932,-3.552 -1.852,-5.112 -0.157,0.667 -0.239,1.349 -0.223,2.041 0.068,3.098 1.635,6.026 4.098,8.478 2.158,2.151 3.681,4.388 2.197,7.08 -1.375,2.499 -4.093,4.396 -7.283,5.575 -0.28,0.105 -0.576,-0.148 -0.345,-0.334 3.101,-2.464 3.587,-5.422 1.71,-8.34 -0.89,4.326 -5.667,6.828 -11.219,7.711 -0.226,0.035 -0.467,-0.143 -0.321,-0.311 1.853,-2.182 2.587,-4.516 0.859,-6.867 -1.371,-1.867 -3.37,-3.387 -4.929,-5.156 -1.004,-1.138 -1.751,-2.732 -1.892,-4.31 -1.683,4.861 4.299,7.338 5.954,8.973 2.001,1.976 0.239,6.044 -11.722,10.408 -11.964,4.372 -21.345,1.176 -18.56,-4.82 2.783,-5.999 1.454,-6.842 -1.805,-12.362 -0.474,-0.807 -0.773,-1.545 -0.946,-2.221 -0.265,1.118 -0.32,2.276 -0.019,3.392 0.329,1.231 1.021,2.159 1.879,3.207 1.314,1.614 1.672,3.344 0.335,5.044 -1.3,1.645 -3.313,2.893 -4.525,4.582 -0.177,0.246 -0.638,0.035 -0.49,-0.21 1.132,-1.891 0.61,-4.017 -0.688,-5.794 0.7,2.795 -2.514,5.468 -4.695,7.922 -0.179,0.326 -0.438,0.645 -0.807,0.955 -0.219,0.184 -0.606,-0.048 -0.446,-0.253 0.243,-0.318 0.52,-0.64 0.818,-0.971 1.153,-2.206 -2.232,-4.558 -2.858,-6.698 -0.378,-1.299 -0.204,-2.654 0.525,-3.823 -1.6,1.206 -2.876,2.615 -3.119,4.383 -0.024,0.178 -0.291,0.293 -0.483,0.155 -2.509,-1.833 -3.947,-4.145 -3.524,-6.812 0.237,-1.504 1.225,-2.86 1.242,-4.405 0.004,-0.381 -0.036,-0.752 -0.105,-1.116 -0.302,0.702 -0.988,1.665 -2.212,3.257 -2.803,3.65 -1.374,5.132 1.682,8.947 5.14,6.418 3.332,14.27 -12.158,14.756 -15.492,0.483 -7.423,-6.272 -11.708,-10.502 -4.288,-4.234 -3.442,-4.808 -1.71,-12.291 0.445,-1.923 0.263,-3.816 -0.283,-5.621 0,0.01 0,0.022 0,0.035 -0.04,2.755 -1.124,5.811 -2.854,8.251 -1.458,2.058 -3.56,3.539 -5.766,5.139 -2.169,1.572 -4.72,3.438 -4.444,5.894 0.017,0.276 -0.538,0.276 -0.568,0.005 -0.159,-2.446 -0.455,-4.908 -0.045,-7.353 0.344,-2.046 1.373,-3.921 2.86,-5.628 -4.878,2.021 -10.8,5.335 -10.495,9.842 0.014,0.206 -0.402,0.307 -0.526,0.113 -2.424,-3.705 -4.059,-8.035 -2.17,-11.765 -3.552,3.445 -5.331,8.719 -2.951,14.262 2.601,6.059 -1.623,9.293 -1.623,9.293 l 0.193,6.009 132.641,-1.105 c 0.461,-1.567 -2.106,-3.397 -3.72,-4.593 z"
   id="path53" />
		
			<radialGradient
   id="SVGID_00000135660721464965853590000000433227898868742051_"
   cx="94.468498"
   cy="95.2341"
   r="21.4338"
   gradientTransform="matrix(1.3283,-0.0027,-0.0027,1,-14.7896,0.2711)"
   gradientUnits="userSpaceOnUse">
			<stop
   offset="0"
   style="stop-color:#FFFDD8"
   id="stop54" />
			<stop
   offset="0.4458"
   style="stop-color:#FFF55B"
   id="stop55" />
			<stop
   offset="1"
   style="stop-color:#FF7900"
   id="stop56" />
		</radialGradient>
		<path
   style="fill:#d61000;fill-opacity:1"
   d="m 114.335,103.077 c -0.134,-0.306 -0.356,-0.572 -0.703,-0.768 -0.028,-0.015 -0.057,-0.02 -0.085,-0.015 -0.109,-0.087 -0.224,-0.173 -0.344,-0.258 -0.032,-0.023 -0.076,0.012 -0.054,0.038 0.272,0.308 0.494,0.631 0.687,0.963 0.291,0.792 -0.036,1.654 -0.445,2.454 0.034,-0.612 -0.044,-1.189 -0.225,-1.635 -0.432,-1.065 -1.406,-1.863 -2.185,-2.783 -1.206,-1.426 -1.068,-3.487 -0.265,-5.009 0.049,-0.093 -0.115,-0.143 -0.181,-0.063 -0.016,0.018 -0.027,0.038 -0.043,0.055 -0.036,-0.005 -0.072,0 -0.099,0.027 -1.48,1.597 -2.72,3.427 -2.646,5.402 0.004,0.101 0.013,0.221 0.028,0.351 -0.181,-0.175 -0.354,-0.361 -0.521,-0.574 -0.799,-1.03 -0.685,-1.968 -0.357,-3.091 0.009,-0.035 -0.015,-0.053 -0.048,-0.063 0.026,-0.032 0.052,-0.07 0.077,-0.103 0.041,-0.053 -0.072,-0.103 -0.121,-0.058 -0.268,0.268 -0.616,0.614 -0.957,1 -0.029,0.005 -0.054,0.018 -0.069,0.043 -0.027,0.042 -0.057,0.088 -0.083,0.135 -0.67,0.794 -1.256,1.735 -1.099,2.532 -0.222,1.196 0.097,2.372 1.429,3.422 1.283,1.008 2.815,1.689 3.546,3.036 0.751,1.376 0.172,3.564 -1.149,4.646 -0.005,0.005 -0.002,0.01 -0.008,0.013 -0.162,0.075 -0.324,0.152 -0.489,0.223 -0.084,0.035 -0.026,0.136 0.063,0.131 1.497,-0.144 2.833,-0.886 3.917,-1.777 3.141,-1.961 4.55,-5.677 2.429,-8.274 z"
   id="path56" />
		<path
   style="opacity:0.7;fill:#d61000;fill-opacity:1"
   d="m 206.555,129.492 43.623,-0.286 -0.441,-16.132 -0.647,0.085 c -1.235,0.158 -2.261,0.735 -3.018,1.324 0.157,-1.349 0.02,-2.683 -0.196,-3.783 l 0.179,-0.123 -0.19,0.053 c -0.296,-1.474 -0.73,-2.52 -0.768,-2.609 l -1.11,0.211 c 0.181,1.002 0.11,2 -0.101,2.942 l -0.634,0.179 c -2.452,0.677 -4.081,1.963 -5.132,3.166 0.85,-2.201 2.389,-3.686 2.409,-3.703 l 1.893,-1.797 -2.604,1.115 c -3.116,1.331 -5.087,3.006 -6.29,4.369 0.321,-3.181 -1.115,-3.728 -1.469,-3.813 l -0.92,-0.221 0.19,0.742 c 0.077,0.313 0.015,0.672 -0.153,1.061 l -1.313,0.067 c -3.532,0.19 -5.623,1.221 -6.839,2.219 1.233,-3.846 4.38,-5.794 4.42,-5.816 l 2.526,-1.531 -3.043,0.744 c -5.458,1.336 -8.155,4.39 -9.419,6.533 0.07,-4.693 2.016,-7.034 2.036,-7.06 l 2.587,-2.998 -3.44,2.409 c -2.777,1.947 -4.143,4.084 -4.815,5.721 -1.607,-5.001 -6.519,-6.33 -6.746,-6.385 l -1.707,-0.441 1.064,1.136 c 0.753,0.805 1.356,1.777 1.811,2.915 l -0.206,0.067 c -3.354,1.121 -6.004,3.222 -7.741,4.927 0.82,-3.019 -0.04,-4.943 -0.088,-5.044 l -0.794,-1.71 -0.313,1.805 c -0.437,2.532 -2.312,4.653 -3.871,6.027 0.248,-0.672 0.404,-1.273 0.459,-1.492 l 0.368,-1.509 -1.346,1.115 c -1.727,1.435 -3.946,2.517 -5.207,3.073 1.058,-3.444 6.047,-5.108 6.102,-5.129 l 2.582,-0.84 -2.79,-0.027 c -0.117,0 -0.238,0 -0.355,0 -6.223,0.055 -10.296,2.86 -12.166,4.527 0.928,-4.066 6.262,-6.994 6.319,-7.024 l 2.843,-1.536 -3.316,0.729 c -6.839,1.504 -10.779,4.527 -12.875,6.778 0.085,-0.667 0.1,-1.398 -0.016,-2.156 -0.366,-2.454 1.484,-4.881 1.502,-4.906 l 1.155,-1.496 -1.928,0.875 c -1.857,0.84 -3.848,3.158 -5.076,5.911 -0.571,1.286 -1.422,2.399 -2.174,3.233 1.166,-4.048 0.216,-5.988 0.168,-6.084 l -0.923,-1.805 -0.18,1.945 c -0.307,3.329 -2.732,5.693 -3.969,6.693 -1.091,-5.332 3.723,-9.146 3.773,-9.186 l 2.465,-1.915 -3.111,1.189 c -5.695,2.179 -8.152,6.209 -9.2,9 -0.025,-0.805 -0.02,-1.798 0.045,-3.014 0.259,-4.743 -2.512,-6.708 -2.632,-6.791 l -1.56,-1.078 0.637,1.557 c 1.577,3.855 -1.587,8.358 -3.089,10.193 0.016,-0.392 0.123,-0.938 0.432,-1.683 0.968,-2.336 0.672,-3.903 0.659,-3.968 l -0.419,-2.096 -0.699,2.056 c -0.486,1.429 -2.574,3.88 -3.833,5.279 -0.061,-6.849 3.224,-10.166 3.259,-10.201 l 2.502,-2.443 -3.273,1.795 c -3.763,2.056 -5.27,4.582 -5.866,6.35 -2.404,-5.226 -7.611,-6.535 -7.857,-6.596 l -3.758,-0.9 3.271,1.708 c 2.392,1.248 3.856,3.67 4.357,7.199 -2.118,0.507 -4.137,1.475 -6.48,3.102 -0.549,0.378 -1.193,0.827 -1.747,1.346 0.045,-0.762 0.065,-1.582 0.055,-2.497 -0.02,-2.958 -0.205,-6.322 -2.155,-8.844 -0.016,-0.021 -0.033,-0.04 -0.056,-0.061 -0.005,-0.015 -0.013,-0.032 -0.02,-0.048 -0.096,-0.197 -0.331,-0.323 -0.597,-0.318 -0.171,0 -0.341,0.061 -0.462,0.158 l -0.186,0.178 0.02,0.326 -0.02,0.05 0.025,0.096 c 0.02,0.336 0.02,0.675 0.025,1.013 0.005,0.376 0.01,0.752 0.03,1.126 -0.176,1.87 -0.695,3.813 -1.571,5.878 -0.181,-1.223 -0.84,-2.12 -1.965,-2.642 -0.345,-0.158 -0.821,-0.035 -0.994,0.256 -0.117,0.192 -0.084,0.418 0.085,0.581 0.035,0.03 0.067,0.065 0.101,0.101 -0.395,1.94 -1.454,3.281 -3.51,4.452 -0.673,0.384 -1.388,0.737 -2.104,1.078 0.216,-0.283 0.43,-0.566 0.641,-0.848 0.297,-0.396 0.596,-0.792 0.905,-1.188 0.143,-0.183 0.148,-0.4 0.018,-0.586 -0.131,-0.179 -0.375,-0.296 -0.64,-0.312 l -0.027,-0.01 -0.198,0.01 c -2.517,0.316 -5.041,1.101 -6.734,1.71 0.733,-0.712 1.419,-1.484 1.896,-2.296 0.102,-0.171 0.085,-0.371 -0.045,-0.532 -0.106,-0.128 -0.28,-0.215 -0.469,-0.245 -0.19,-0.058 -0.404,-0.051 -0.592,0.015 -1.149,0.406 -2.361,0.747 -3.532,1.073 -1.629,0.456 -3.31,0.925 -4.892,1.59 -0.051,0.02 -0.104,0.045 -0.156,0.064 0.229,-0.195 0.463,-0.386 0.689,-0.576 0.816,-0.677 1.658,-1.384 2.362,-2.179 0.068,-0.072 0.109,-0.158 0.128,-0.248 0.056,-0.146 0.034,-0.306 -0.063,-0.441 -0.122,-0.168 -0.344,-0.266 -0.592,-0.266 l -0.116,0.01 c -3.114,0.429 -5.64,1.284 -7.719,2.604 0.407,-0.654 0.922,-1.256 1.46,-1.885 0.544,-0.64 1.106,-1.299 1.557,-2.028 0.109,-0.17 0.096,-0.371 -0.034,-0.536 -0.215,-0.266 -0.726,-0.341 -1.042,-0.155 l -0.052,0.015 c -2.976,0.606 -5.29,2.745 -6.145,3.635 -0.247,0.256 -0.479,0.524 -0.699,0.805 0.141,-0.656 0.305,-1.288 0.462,-1.877 0.657,-2.427 1.691,-4.402 3.261,-6.213 0.154,-0.178 0.172,-0.403 0.044,-0.591 -0.189,-0.278 -0.676,-0.382 -1.021,-0.203 l -0.105,0.015 c -2.853,0.614 -5.628,2.424 -8.488,5.53 -0.726,0.79 -1.867,2.158 -2.665,3.713 -1.548,-4.978 -4.908,-8.824 -9.417,-10.704 -0.008,-0.011 -0.021,-0.021 -0.03,-0.03 -0.134,-0.136 -0.333,-0.208 -0.552,-0.201 l -0.191,-0.015 c -0.304,0 -0.575,0.165 -0.663,0.398 -0.084,0.226 0.025,0.467 0.272,0.594 0.066,0.03 0.13,0.07 0.192,0.105 0.021,0.016 0.045,0.03 0.065,0.04 1.108,1.58 1.624,3.35 1.622,5.556 -1.158,-1.867 -2.837,-3.911 -5.314,-4.948 l -0.173,-0.065 -0.145,0.002 c -0.175,0.003 -0.343,0.061 -0.465,0.158 -0.125,0.056 -0.231,0.141 -0.3,0.246 -0.117,0.181 -0.095,0.4 0.059,0.566 2.301,2.477 3.595,5.324 3.949,8.764 -0.757,-0.173 -1.584,-0.255 -2.459,-0.25 -2.313,0.02 -4.672,0.654 -6.755,1.218 l -0.446,0.118 c -0.853,0.23 -1.661,0.488 -2.423,0.779 1.078,-1.128 2.202,-2.271 3.582,-3.051 0.336,-0.188 0.47,-0.512 0.343,-0.819 -0.162,-0.394 -0.711,-0.612 -1.202,-0.472 -2.134,0.611 -4.018,1.609 -5.84,2.572 -0.723,0.386 -1.471,0.779 -2.215,1.138 l -0.292,0.144 c -0.335,0.16 -0.687,0.328 -1.041,0.509 1.768,-2.988 3.947,-5.957 7.272,-8.267 0.237,-0.166 0.318,-0.422 0.207,-0.652 -0.16,-0.331 -0.703,-0.471 -1.085,-0.271 -0.046,0.02 -0.088,0.045 -0.14,0.075 -4.678,1.229 -8.748,3.916 -10.765,5.41 -1.238,0.922 -2.283,1.795 -3.161,2.647 0.08,-1.625 -0.069,-3.385 -0.441,-5.175 -0.38,-1.83 -1.163,-3.537 -1.804,-4.818 -0.595,-1.198 -1.488,-2.688 -3.115,-3.6 -0.34,-0.19 -0.846,-0.078 -1.006,0.221 -0.105,0.195 -0.052,0.421 0.138,0.576 0.49,0.396 0.89,0.857 1.258,1.446 1.029,2.289 0.915,4.927 -0.262,7.608 0.301,-0.955 0.482,-1.923 0.373,-2.9 0.009,-0.181 0.006,-0.336 -0.006,-0.486 -0.051,-0.584 -0.485,-0.96 -1.206,-1.015 1.117,0.082 -3.838,5.35 -3.894,5.395 -0.485,0.411 -0.988,0.832 -1.451,1.264 -0.068,0.065 -0.136,0.13 -0.201,0.195 l 0.042,-0.11 c 0.897,-2.184 1.745,-4.249 1.905,-6.588 0.259,-0.491 -0.015,-0.936 -0.578,-1.158 0.401,0.16 -5.384,5.345 -5.729,5.615 -0.844,0.664 -1.712,1.344 -2.52,2.065 0.425,-1.008 0.84,-2.045 1.143,-3.11 0.953,-3.362 1.03,-6.741 0.231,-10.051 -0.063,-0.255 -0.343,-0.438 -0.673,-0.436 -0.074,0 -5.066,10.341 -5.611,11.108 -0.263,0.374 -0.531,0.75 -0.794,1.134 l -0.17,0.24 c -0.42,0.6 -0.915,1.301 -1.353,2.053 0.107,-1.141 0.374,-2.381 0.817,-3.8 0.014,-0.045 0.02,-0.096 0.019,-0.141 0.03,-0.13 -10e-4,-0.266 -0.091,-0.381 -0.245,-0.306 -0.877,-0.339 -1.155,-0.045 -0.419,0.438 -0.833,0.938 -1.257,1.523 -0.419,0.339 -0.795,0.718 -1.126,1.134 0.221,-1.025 0.544,-2.131 0.981,-3.385 0.53,-1.52 1.283,-3.059 2.435,-4.994 l 0.169,-0.285 c 0.429,-0.722 0.871,-1.469 1.433,-2.126 0.315,-0.368 0.667,-0.717 1.04,-1.078 0.316,-0.311 0.641,-0.632 0.941,-0.968 0.159,-0.171 0.179,-0.396 0.057,-0.582 -0.211,-0.316 -0.808,-0.394 -1.142,-0.13 -0.082,0.065 -0.164,0.13 -0.247,0.196 l -0.038,0.01 c -2.469,0.667 -4.419,2.292 -6.137,3.723 l -0.572,0.474 c -2.364,1.945 -4.235,3.878 -5.721,5.906 -0.73,0.987 -1.331,1.978 -1.806,2.953 0.024,-0.235 0.05,-0.477 0.082,-0.722 0.318,-2.563 0.827,-5.465 2.874,-7.544 0.165,-0.17 0.194,-0.391 0.077,-0.579 -0.206,-0.328 -0.826,-0.4 -1.149,-0.13 -0.03,0.027 -0.061,0.053 -0.09,0.08 -0.127,0.025 -0.242,0.083 -0.333,0.165 -2.112,1.873 -3.812,4.232 -5.193,7.215 -0.38,0.817 -0.697,1.585 -0.957,2.322 -0.905,-1.883 -2.259,-3.575 -3.943,-4.924 -0.578,-0.467 -0.856,-0.893 -1.608,-1.035 1.513,0.288 2.455,8.967 2.069,10.381 -0.434,1.601 -1.351,3.179 -2.649,4.567 -0.558,0.595 -1.297,1.088 -1.945,1.502 l -0.217,0.141 0.146,4.775 69.088,-0.579 0.129,-0.304 c 0.146,-0.341 0.278,-0.607 0.42,-0.845 0.67,-1.125 1.669,-2.174 2.965,-3.121 0.968,-0.704 2.088,-1.334 3.229,-1.822 -0.226,1.123 -0.496,2.261 -0.813,3.392 -0.239,0.853 -0.527,1.71 -0.887,2.63 l -0.228,0.587 68.401,-0.569 -0.005,-0.333 62.939,-0.6 0.061,-0.394 c 0.608,-3.934 2.238,-7.335 4.851,-10.125 -0.574,5.231 -2.321,9.864 -2.342,9.914 z M 75.338,120.884 c -2.173,-0.206 -4.348,-0.021 -6.277,0.526 0.372,-0.316 0.766,-0.625 1.185,-0.926 0.687,-0.488 1.424,-0.942 2.135,-1.384 0.554,-0.341 1.238,-0.571 1.963,-0.812 0.363,-0.121 0.736,-0.246 1.095,-0.389 0.029,0.952 -0.004,1.944 -0.101,2.985 z m 65.059,-5.418 c 0.11,-0.125 0.22,-0.251 0.336,-0.376 0.002,0.056 0.005,0.105 0.007,0.16 -0.117,0.07 -0.232,0.141 -0.343,0.216 z m 53.003,2.431 v 0 h -0.002 z m 10.53,-1.633 c 1.033,-2.257 4.031,-5.004 4.681,-5.581 0.338,1.099 0.552,2.326 0.639,3.683 -2.295,0.536 -4.167,1.335 -5.32,1.898 z m 38.019,-0.795 c 0.136,-1.66 1.129,-2.726 1.609,-3.146 -0.443,1.26 -1.082,2.361 -1.609,3.146 z m -11.133,-2.545 c -0.76,1.166 -2.166,2.449 -3.294,3.362 0.581,-2.224 2.542,-3.057 2.635,-3.094 z"
   id="path57" />
		<g
   id="g62"
   style="fill:#d61000;fill-opacity:1">
			
				<linearGradient
   id="SVGID_00000137831941799614293890000007853165746278312835_"
   gradientUnits="userSpaceOnUse"
   x1="138.7785"
   y1="120.9948"
   x2="138.7785"
   y2="143.8282"
   gradientTransform="matrix(1.4385,-0.012,0.0083,1,-21.7992,-12.7722)">
				<stop
   offset="0.0413"
   style="stop-color:#FFF55B"
   id="stop57" />
				<stop
   offset="0.3482"
   style="stop-color:#BFD238"
   id="stop58" />
				<stop
   offset="0.4774"
   style="stop-color:#B9C739"
   id="stop59" />
				<stop
   offset="0.7035"
   style="stop-color:#A7AA3C"
   id="stop60" />
				<stop
   offset="0.9981"
   style="stop-color:#8B7B40"
   id="stop61" />
				<stop
   offset="1"
   style="stop-color:#8B7B40"
   id="stop62" />
			</linearGradient>
			<path
   style="fill:#d61000;fill-opacity:1"
   d="m 139.228,129.723 c 0.201,-0.286 7.519,-18.272 -2.341,-22.815 0,0 6.919,1.459 8.789,7.909 0,0 -0.269,-4.492 6.458,-7.749 0,0 -4.164,3.591 -3.59,11.196 0,0 4.467,-4.092 5.27,-6.162 0,0 0.32,1.422 -0.688,3.564 -1.003,2.142 -0.181,2.778 -0.181,2.778 0,0 6.501,-5.889 4.207,-10.85 0,0 2.878,1.756 2.609,6.095 -0.273,4.345 0.354,5.761 0.354,5.761 0,0 0.652,-7.759 10.347,-11.043 0,0 -6.005,4.106 -4.009,9.852 0,0 4.785,-2.673 5.26,-7.157 0,0 1.349,2.336 -0.963,7.408 0,0 2.851,-1.948 4.259,-4.733 1.412,-2.788 3.543,-4.723 5.175,-5.38 0,0 -2.121,2.417 -1.7,4.924 0.432,2.557 -0.982,4.772 -0.982,4.772 0,0 3.425,-6.428 15.58,-8.804 0,0 -7.438,3.545 -7.189,8.381 0,0 4.863,-5.305 14.174,-5.242 0,0 -6.633,1.905 -7.109,6.036 0,0 3.978,-1.313 6.826,-3.399 0,0 -0.795,2.854 -1.918,3.43 0,0 5.912,-3.108 6.794,-7.596 0,0 1.561,2.973 -1.269,7.335 0,0 4.049,-5.084 10.481,-6.989 0,0 -5.287,4.031 -5.676,6.664 0,0 5.809,-3.174 12.665,-2.879 0,0 -10.103,3.5 -11.958,14.042 z"
   id="path62" />
		</g>
		
			<linearGradient
   id="SVGID_00000132064081058824597910000006223041498060283061_"
   gradientUnits="userSpaceOnUse"
   x1="90.500504"
   y1="119.8499"
   x2="90.500504"
   y2="143.49519"
   gradientTransform="matrix(1.3283,-0.011,0.0083,1,-11.9016,-12.2105)">
			<stop
   offset="0.0413"
   style="stop-color:#FFF55B"
   id="stop63" />
			<stop
   offset="0.3482"
   style="stop-color:#BFD238"
   id="stop64" />
			<stop
   offset="0.9711"
   style="stop-color:#6E4B45"
   id="stop65" />
		</linearGradient>
		<path
   style="fill:#d61000;fill-opacity:1"
   d="m 76.856,121.465 c -0.22,2.211 -0.713,4.422 -1.349,6.586 -0.248,0.85 -0.55,1.692 -0.889,2.527 l 66.393,-0.557 c -0.018,-1.113 -0.061,-2.224 0.042,-3.345 0.133,-1.52 0.361,-3.033 0.728,-4.53 0.677,-2.777 2.171,-5.305 4.061,-7.729 0.08,-0.107 -0.135,-0.19 -0.235,-0.105 -0.112,0.091 -0.208,0.195 -0.315,0.291 -0.016,0 -0.028,-0.005 -0.046,0 -2.582,0.915 -5.196,2.349 -7.009,4.146 0.072,-0.146 0.141,-0.296 0.221,-0.441 0.727,-1.304 1.875,-2.347 2.913,-3.505 0.02,-0.022 0.024,-0.047 0.024,-0.069 0.075,-0.038 0.156,-0.081 0.231,-0.121 0.148,-0.085 0.02,-0.24 -0.145,-0.205 -2.54,0.499 -4.691,1.644 -6.642,2.943 -0.829,0.551 -1.72,1.152 -2.291,1.872 -0.09,0.113 -0.173,0.229 -0.248,0.349 -0.096,0.09 -0.195,0.176 -0.286,0.266 0.179,-1.299 0.221,-2.612 0.211,-3.896 -0.018,-2.647 -0.171,-5.836 -2.048,-8.16 -0.016,-0.021 -0.038,-0.03 -0.063,-0.035 -0.02,-0.045 -0.035,-0.093 -0.06,-0.138 -0.025,-0.05 -0.126,-0.032 -0.12,0.02 0.005,0.068 0.005,0.136 0.01,0.203 0,0.006 -0.005,0.011 -0.005,0.016 l 0.005,0.017 c 0.035,0.694 0.018,1.394 0.055,2.086 -0.285,2.947 -1.486,5.86 -3.082,8.604 0.056,-0.184 0.109,-0.366 0.158,-0.542 0.437,-1.534 0.627,-3.715 -1.436,-4.628 -0.12,-0.055 -0.252,0.076 -0.17,0.153 0.091,0.083 0.175,0.171 0.256,0.256 -0.383,2.033 -1.512,3.459 -3.741,4.678 -1.326,0.725 -2.766,1.318 -4.172,1.953 1.024,-1.113 1.863,-2.274 2.806,-3.43 0.093,-0.115 -0.081,-0.221 -0.226,-0.2 -0.014,-0.003 -0.024,-0.011 -0.042,-0.008 -2.211,0.266 -4.551,0.905 -6.581,1.612 -0.905,0.315 -1.792,0.651 -2.639,1.042 0.07,-0.06 0.144,-0.115 0.212,-0.17 1.304,-1.068 2.803,-2.312 3.615,-3.635 0.05,-0.08 -0.049,-0.15 -0.149,-0.141 -0.055,-0.03 -0.123,-0.04 -0.201,-0.015 -2.735,0.925 -5.653,1.448 -8.308,2.514 -0.93,0.374 -1.934,0.805 -2.826,1.324 0.363,-0.434 0.759,-0.86 1.219,-1.271 1.225,-1.093 2.659,-2.046 3.748,-3.221 0.024,-0.028 0.033,-0.061 0.031,-0.088 0.051,-0.066 0.011,-0.163 -0.11,-0.149 -2.705,0.358 -5.259,1.081 -7.411,2.396 -0.633,0.389 -1.273,0.84 -1.846,1.337 0.226,-0.477 0.478,-0.948 0.736,-1.417 0.835,-1.517 2.313,-2.697 3.264,-4.153 0.071,-0.115 -0.143,-0.211 -0.245,-0.115 -0.03,0.024 -0.063,0.055 -0.094,0.085 -0.038,-0.021 -0.081,-0.03 -0.132,-0.021 -2.29,0.446 -4.381,1.905 -5.774,3.294 -0.885,0.883 -1.547,1.87 -2.034,2.906 0.005,-0.216 0.011,-0.432 0.032,-0.652 0.114,-1.213 0.428,-2.422 0.764,-3.612 0.62,-2.201 1.633,-4.187 3.316,-6.044 0.092,-0.103 -0.053,-0.224 -0.194,-0.155 -0.048,0.022 -0.093,0.05 -0.142,0.075 -0.036,-0.013 -0.076,-0.016 -0.12,-0.008 -3.362,0.694 -6.125,3.033 -8.097,5.084 -1.247,1.299 -2.68,3.144 -3.214,4.954 -1.058,-4.653 -4.064,-9.344 -9.589,-11.497 -0.031,-0.03 -0.058,-0.061 -0.089,-0.091 -0.046,-0.045 -0.111,-0.034 -0.147,0 -0.031,-0.015 -0.064,-0.024 -0.096,-0.04 -0.117,-0.04 -0.234,0.096 -0.124,0.15 0.131,0.065 0.25,0.141 0.379,0.206 1.309,1.75 1.744,3.598 1.732,5.607 -0.004,0.56 -0.07,1.136 -0.149,1.715 -0.022,-0.04 -0.041,-0.08 -0.064,-0.12 -1.2,-2.196 -2.988,-4.796 -5.88,-5.961 -0.081,-0.033 -0.146,0.037 -0.12,0.09 -0.106,-0.048 -0.247,0.063 -0.167,0.141 3.653,3.768 4.457,8.147 4,12.722 z"
   id="path65" />
		
			<linearGradient
   id="SVGID_00000065756202758566911190000002091069517392412036_"
   gradientUnits="userSpaceOnUse"
   x1="179.5779"
   y1="121.8341"
   x2="179.5779"
   y2="143.1675"
   gradientTransform="matrix(1.3283,-0.011,0.0083,1,-11.9016,-12.2105)">
			<stop
   offset="0.0413"
   style="stop-color:#FFF55B"
   id="stop66" />
			<stop
   offset="0.3482"
   style="stop-color:#BFD238"
   id="stop67" />
			<stop
   offset="0.9711"
   style="stop-color:#6E4B45"
   id="stop68" />
		</linearGradient>
		<path
   style="fill:#d61000;fill-opacity:1"
   d="m 206.988,129.086 c 0,0 5.924,-14.844 -0.366,-21.264 0,0 6.438,1.582 6.778,8.266 0,0 -0.037,-4.197 5.225,-7.727 0,0 -2.712,3.014 -2,9.193 0,0 1.461,-6.06 9.947,-8.05 0,0 -4.515,2.597 -5.036,7.866 0,0 1.2,-3.354 7.812,-3.695 0,0 -3.016,1.166 -3.081,4.438 0,0 5.638,-3.815 5.051,-6.017 0,0 2.081,0.479 0.52,5.686 0,0 1.576,-3.783 7.601,-6.252 0,0 -3.094,2.803 -3.063,6.498 0,0 1.387,-3.991 6.38,-5.315 0,0 -2.629,1.73 -1.939,4.924 0,0 3.838,-4.086 3.045,-8.348 0,0 1.83,4.182 0.537,7.605 0,0 1.587,-2.146 4.041,-2.451 l 0.403,14.364 z"
   id="path68" />
		
			<radialGradient
   id="SVGID_00000160902093483564606760000014527892971554687381_"
   cx="163.0495"
   cy="28.375799"
   r="17.204"
   gradientTransform="matrix(1.3283,-0.0027,-0.0027,1,-14.7896,0.2711)"
   gradientUnits="userSpaceOnUse">
			<stop
   offset="0.0413"
   style="stop-color:#FFF55B"
   id="stop69" />
			<stop
   offset="0.4142"
   style="stop-color:#FF7900"
   id="stop70" />
			<stop
   offset="0.9575"
   style="stop-color:#A90900"
   id="stop71" />
		</radialGradient>
		<path
   style="fill:#d61000;fill-opacity:1"
   d="m 203.597,29.855 c -0.033,-0.022 -0.058,-0.048 -0.096,-0.07 -0.008,-0.005 -0.018,-0.005 -0.025,-0.007 -0.16,-0.099 -0.32,-0.199 -0.483,-0.297 -0.037,-0.02 -0.078,0.02 -0.045,0.043 0.278,0.195 0.544,0.407 0.805,0.625 0.616,0.715 0.536,1.663 0.181,2.56 -0.02,-0.128 -0.046,-0.256 -0.078,-0.381 -0.128,-0.469 -0.413,-0.882 -0.734,-1.287 -0.235,-0.296 -0.566,-0.55 -0.845,-0.821 -0.376,-0.362 -0.341,-0.914 -0.398,-1.347 -0.158,-1.219 -1.326,-1.973 -2.324,-2.843 -1.665,-1.45 -1.139,-3.359 0.552,-4.642 0.105,-0.055 0.208,-0.109 0.314,-0.167 0.11,-0.058 0.017,-0.193 -0.11,-0.158 -2.558,0.748 -4.094,2.456 -3.919,4.318 -0.123,-0.078 -0.25,-0.147 -0.381,-0.199 -0.95,-0.38 -1.998,-0.435 -3.033,-0.267 -0.04,0.005 -0.08,0.013 -0.118,0.018 -0.027,0.005 -0.058,0.01 -0.085,0.015 0,0 0,0 -0.003,0 -0.138,0.025 -0.28,0.058 -0.423,0.104 -0.086,0.028 -0.063,0.135 0.035,0.123 1.642,-0.232 2.87,0.628 3.096,1.801 0.13,0.666 -0.321,1.376 -0.705,1.954 -0.724,1.099 -1.699,2.089 -1.979,3.32 -0.221,0.965 0.308,1.863 1.181,2.537 0.448,0.352 1.025,0.617 1.552,0.902 -0.677,-0.031 -1.397,0.093 -2.014,0.317 -0.549,0.104 -1.05,0.376 -1.371,0.759 -0.035,0.04 0.025,0.101 0.085,0.068 1.166,-0.687 2.347,-0.501 3.167,0.405 0.792,0.88 -0.056,2.025 -0.347,2.936 -0.413,1.3 0.189,2.442 1.555,3.249 1.963,1.16 4.61,0.526 6.39,-0.713 1.229,0.105 2.53,-0.18 3.48,-0.756 1.477,-0.891 2.036,-2.73 2.074,-4.076 0.08,-3.177 -1.835,-6.009 -4.951,-8.023 z"
   id="path71" />
		
			<radialGradient
   id="SVGID_00000049223937837257610240000001009731054102598033_"
   cx="132.2326"
   cy="45.174702"
   r="18.8249"
   gradientTransform="matrix(1.3283,-0.0027,-0.0027,1,-14.7896,0.2711)"
   gradientUnits="userSpaceOnUse">
			<stop
   offset="0.0413"
   style="stop-color:#FFF55B"
   id="stop72" />
			<stop
   offset="0.5584"
   style="stop-color:#FF7900"
   id="stop73" />
			<stop
   offset="0.9575"
   style="stop-color:#A90900"
   id="stop74" />
		</radialGradient>
		<path
   style="fill:#d61000;fill-opacity:1"
   d="m 174.1,45.615 c -0.203,0.386 -0.33,0.785 -0.416,1.187 -0.226,0.496 -0.611,0.929 -1.018,1.38 -0.165,0.192 -0.366,0.36 -0.566,0.525 -0.584,-1.518 -0.238,-3.025 0.872,-4.506 1.025,-1.369 1.931,-2.295 1.309,-3.893 -0.045,-0.11 -0.261,-0.065 -0.253,0.043 0.027,0.454 -0.025,0.832 -0.148,1.181 -1.258,1.271 -3.976,1.092 -5.655,1.863 -0.606,0.279 -1.061,0.621 -1.449,1.035 0,-0.015 0,-0.032 0,-0.047 -0.018,-1.153 -0.847,-2.037 -2.403,-2.204 -0.088,-0.01 -0.128,0.085 -0.046,0.113 0.269,0.088 0.489,0.197 0.683,0.319 0.005,0.008 0.007,0.017 0.012,0.023 1.492,1.688 -1.875,2.335 -3.316,2.854 -1.01,0.363 -1.988,0.865 -2.582,1.596 -0.619,0.766 -0.99,1.681 -0.92,2.561 -1.158,-0.394 -2.537,-0.15 -3.622,0.376 -0.174,0.033 -0.349,0.074 -0.534,0.129 -0.098,0.03 -0.07,0.158 0.045,0.143 1.224,-0.18 2.387,0.043 3.142,0.826 0.944,0.985 -0.249,2.191 -0.94,3.022 -1.048,1.256 -1.243,2.487 -0.682,3.898 0.443,1.114 1.539,2.08 3.046,2.374 0.436,0.086 0.872,0.192 1.314,0.268 1.953,1.177 5.462,0.32 7.413,-0.483 3.163,-1.305 5.38,-3.671 6.161,-6.288 0.025,-0.075 -0.12,-0.105 -0.165,-0.042 -0.04,-0.013 -0.085,-0.008 -0.11,0.03 -0.547,0.834 -1.381,1.18 -2.342,1.364 1.139,-0.622 2.066,-1.5 2.643,-2.394 1.52,-2.35 0.246,-4.767 0.742,-7.204 0.013,-0.092 -0.17,-0.14 -0.215,-0.049 z"
   id="path74" />
		
			<radialGradient
   id="SVGID_00000147209249691890319290000014612038197157307302_"
   cx="175.6902"
   cy="25.502001"
   r="16.7932"
   gradientTransform="matrix(1.3283,-0.0027,-0.0027,1,-14.7896,0.2711)"
   gradientUnits="userSpaceOnUse">
			<stop
   offset="0.0413"
   style="stop-color:#FFF55B"
   id="stop75" />
			<stop
   offset="0.5584"
   style="stop-color:#FF7900"
   id="stop76" />
			<stop
   offset="0.9575"
   style="stop-color:#A90900"
   id="stop77" />
		</radialGradient>
		<path
   style="fill:#d61000;fill-opacity:1"
   d="m 229.41,31.647 c -0.008,-0.022 -0.03,-0.033 -0.051,-0.045 -0.027,-0.085 -0.064,-0.168 -0.109,-0.25 -0.035,-0.063 -0.158,-0.043 -0.156,0.025 0.018,0.479 -0.14,0.923 -0.378,1.353 0.233,-0.876 0.067,-1.782 -0.432,-2.686 -0.942,-1.701 -3.028,-3.75 -0.985,-5.451 0.096,-0.078 -0.058,-0.201 -0.168,-0.136 -0.285,0.174 -0.526,0.357 -0.722,0.549 -1.075,0.493 -1.998,1.37 -2.123,2.26 -0.27,-0.772 -0.096,-1.572 0.135,-2.569 0.211,-0.904 0.065,-1.843 -1.09,-2.307 -0.105,-0.042 -0.19,0.075 -0.105,0.13 0.261,0.172 0.406,0.388 0.477,0.621 -0.168,1.158 -1.665,1.49 -2.811,2.047 -0.77,0.375 -1.491,0.9 -1.963,1.496 -0.544,0.686 -0.857,1.385 -0.897,2.18 -0.016,0.303 0.077,0.574 0.218,0.834 -1.181,-0.571 -2.725,-0.394 -3.748,0.298 -0.04,0.028 -0.01,0.088 0.046,0.068 0.285,-0.093 0.571,-0.157 0.855,-0.194 1.013,-0.01 1.657,0.292 1.659,1.192 0,0.697 -0.235,1.384 -0.488,2.05 -0.552,1.445 -0.705,2.869 0.155,4.267 0.734,1.191 2.605,2.19 4.404,2.101 0.677,-0.034 1.281,-0.208 1.8,-0.478 1.124,-0.387 2.267,-0.187 3.44,-0.425 1.048,-0.213 1.952,-0.713 2.519,-1.419 1.288,-1.613 1.297,-3.773 0.518,-5.511 z"
   id="path77" />
		
			<radialGradient
   id="SVGID_00000179615643004650280230000008231308387171442606_"
   cx="38.752399"
   cy="12.0063"
   r="22.7876"
   gradientTransform="matrix(1.3283,-0.0027,-0.0027,1,-14.7896,0.2711)"
   gradientUnits="userSpaceOnUse">
			<stop
   offset="0.0413"
   style="stop-color:#FFF55B"
   id="stop78" />
			<stop
   offset="0.4142"
   style="stop-color:#FF7900"
   id="stop79" />
			<stop
   offset="0.9575"
   style="stop-color:#A90900"
   id="stop80" />
		</radialGradient>
		<path
   style="fill:#d61000;fill-opacity:1"
   d="m 55.953,20.49 c -0.038,0.02 -0.069,0.043 -0.105,0.063 -1.396,0.217 -2.72,0.838 -3.479,1.725 -0.006,-0.165 -0.013,-0.326 -0.02,-0.486 -0.047,-1.143 -0.185,-2.236 -0.648,-3.328 -0.753,-1.774 -2.569,-3.166 -4.822,-3.873 -0.301,-0.118 -0.599,-0.222 -0.894,-0.309 -0.084,-0.024 -0.136,0.064 -0.058,0.095 0.712,0.272 1.323,0.592 1.865,0.966 0.559,0.86 0.623,1.686 0.42,2.504 -0.58,-1.272 -2.299,-2.354 -3.659,-3.184 C 42.661,13.511 42.136,12.266 42.268,10.457 42.396,8.71 43.185,7.092 44.686,5.744 44.756,5.679 44.637,5.579 44.551,5.638 44.473,5.685 44.401,5.74 44.324,5.793 44.309,5.76 44.261,5.738 44.21,5.758 42.377,6.551 40.6,7.651 39.703,9.077 39.502,7.397 38.269,5.938 35.748,6.137 c -0.017,0 -0.027,0.007 -0.038,0.012 -0.292,-0.019 -0.605,-0.019 -0.951,0.02 -0.054,0.008 -0.061,0.065 -0.005,0.073 1.042,0.128 1.847,0.225 2.327,1.018 0.438,0.725 0.366,1.53 -0.046,2.248 -0.656,1.137 -2.13,1.923 -2.987,2.97 -0.707,0.858 -0.954,1.948 -0.759,2.969 -0.643,-0.488 -1.498,-0.939 -2.359,-0.84 -0.029,0.003 -0.045,0.018 -0.056,0.033 -0.257,-0.006 -0.528,0.021 -0.809,0.095 -0.071,0.018 -0.044,0.098 0.026,0.093 1.346,-0.061 1.884,0.579 1.989,1.494 0.091,0.77 -0.486,1.442 -0.97,2.08 -0.857,1.132 -1.779,2.313 -1.577,3.659 0.171,1.135 1.491,1.857 2.689,2.391 0.344,0.155 0.687,0.305 1.023,0.462 -1.629,0.015 -3.571,0.758 -4.53,1.4 -0.035,0.023 -0.035,0.055 -0.02,0.081 -0.058,0.032 -0.117,0.065 -0.173,0.1 -0.056,0.035 0.001,0.093 0.064,0.068 1.85,-0.758 3.631,-0.504 4.929,0.725 0.989,0.938 0.917,2.037 0.994,3.156 0.113,1.662 1.026,3.255 2.737,4.322 2.007,1.249 4.692,1.206 7.119,0.895 1.382,-0.176 2.523,-0.572 3.524,-1.129 0.68,-0.085 1.352,-0.28 1.918,-0.519 1.72,-0.725 3.042,-1.821 3.594,-3.269 1.311,-3.447 -0.754,-7.185 2.661,-10.166 0.061,-0.053 -0.037,-0.13 -0.109,-0.088 z"
   id="path80" />
		
			<radialGradient
   id="SVGID_00000040572084703175045730000018253958875900968848_"
   cx="41.892601"
   cy="18.133499"
   r="15.0159"
   gradientTransform="matrix(1.3283,-0.0027,-0.0027,1,-14.7896,0.2711)"
   gradientUnits="userSpaceOnUse">
			<stop
   offset="0"
   style="stop-color:#FFFDD8"
   id="stop81" />
			<stop
   offset="0.4458"
   style="stop-color:#FFF55B"
   id="stop82" />
			<stop
   offset="1"
   style="stop-color:#FF7900"
   id="stop83" />
		</radialGradient>
		<path
   style="fill:#d61000;fill-opacity:1"
   d="m 50.756,24.846 c -0.589,-0.751 -1.345,-1.424 -2.227,-1.969 -0.031,-0.02 -0.07,0.013 -0.045,0.035 0.92,0.794 1.499,1.717 0.75,2.792 -0.495,-2.064 -2.067,-3.753 -4.065,-5.163 0.999,0.705 0.938,2.396 0.669,3.298 -0.227,-0.504 -0.527,-0.977 -0.807,-1.353 -0.728,-0.981 -1.829,-1.726 -2.775,-2.583 -1.606,-1.454 -1.436,-3.071 -0.632,-4.709 0.129,-0.157 0.259,-0.317 0.385,-0.483 0.058,-0.072 -0.093,-0.135 -0.163,-0.075 -0.02,0.017 -0.038,0.033 -0.056,0.05 -0.029,-0.002 -0.059,0.002 -0.079,0.028 -0.026,0.038 -0.051,0.074 -0.079,0.111 -1.435,1.258 -2.476,2.487 -2.813,4.179 -0.08,0.406 -0.094,0.825 -0.05,1.241 -0.805,-0.915 -1.05,-2.038 -0.632,-3.218 0.083,-0.16 0.167,-0.321 0.247,-0.479 0.028,-0.053 -0.071,-0.108 -0.114,-0.055 -0.012,0.013 -0.022,0.027 -0.032,0.04 -0.018,0.002 -0.035,0.007 -0.046,0.025 -0.019,0.03 -0.031,0.063 -0.049,0.093 -1.3,1.612 -2.348,3.708 -1.262,5.518 0.472,0.787 1.406,1.406 2.109,2.074 0.702,0.67 0.87,1.313 0.817,1.969 -0.11,-0.11 -0.223,-0.213 -0.331,-0.301 -0.797,-0.652 -2.013,-1.153 -3.218,-1.053 -0.034,0.003 -0.052,0.018 -0.061,0.035 -0.038,0.005 -0.053,0.038 -0.017,0.053 0.011,0.005 0.02,0.01 0.037,0.018 2.157,0.905 1.608,2.651 1.445,4.235 -0.109,1.074 0.039,2.024 0.76,2.964 1.361,1.785 4.44,2.31 6.962,2.055 2.457,-0.251 4.798,-1.351 5.924,-3.039 1.352,-2.033 0.94,-4.429 -0.552,-6.333 z"
   id="path83" />
		
			<radialGradient
   id="SVGID_00000046299561814959375030000005252290837521570222_"
   cx="100.6867"
   cy="23.873301"
   r="18.732401"
   gradientTransform="matrix(1.3283,-0.0027,-0.0027,1,-14.7896,0.2711)"
   gradientUnits="userSpaceOnUse">
			<stop
   offset="0.0413"
   style="stop-color:#FFF55B"
   id="stop84" />
			<stop
   offset="0.5584"
   style="stop-color:#FF7900"
   id="stop85" />
			<stop
   offset="0.9575"
   style="stop-color:#A90900"
   id="stop86" />
		</radialGradient>
		<path
   style="fill:#d61000;fill-opacity:1"
   d="m 129.262,24.142 c -0.168,0.006 -0.336,0.034 -0.497,0.069 -0.02,-0.012 -0.04,-0.02 -0.069,-0.017 -1.103,0.136 -2.456,0.393 -3.401,0.963 0.887,-2.065 0.442,-4.504 -2.751,-4.46 -0.024,0.001 -0.029,0.029 -0.007,0.035 0.302,0.095 0.567,0.21 0.817,0.334 1.024,0.83 0.707,2.047 -0.425,2.819 -1.204,0.82 -3.007,1.042 -4.297,1.824 -0.845,0.51 -1.77,1.488 -2.175,2.489 -1.101,-0.833 -2.701,-0.88 -3.967,-0.215 -0.076,0.027 -0.155,0.053 -0.227,0.087 -0.048,0.026 -0.021,0.094 0.04,0.083 1.976,-0.312 2.667,1.078 2.169,2.282 -0.351,0.85 -1.279,1.412 -2.164,1.942 -1.356,0.813 -2.344,1.692 -2.55,3.029 -0.327,2.146 2.329,3.868 4.985,4.094 2.675,1.849 7.575,1.024 9.896,-0.846 1.437,-1.156 1.939,-2.731 1.957,-4.266 0.01,-0.92 -0.177,-1.837 -0.195,-2.758 -0.029,-1.286 0.492,-2.177 1.421,-3.231 0.06,-0.067 -0.036,-0.153 -0.13,-0.107 -0.121,0.058 -0.231,0.118 -0.338,0.182 -0.977,0.197 -1.744,0.638 -2.362,1.236 -0.096,0.09 -0.191,0.196 -0.286,0.306 0.128,-0.819 0.568,-1.573 1.056,-2.304 0.771,-1.154 2.025,-2.806 3.56,-3.455 0.079,-0.032 0.02,-0.12 -0.06,-0.115 z"
   id="path86" />
		
			<radialGradient
   id="SVGID_00000099659796760925542170000017443333078034428327_"
   cx="97.032997"
   cy="30.1273"
   r="9.6110001"
   gradientTransform="matrix(1.3283,-0.0027,-0.0027,1,-14.7896,0.2711)"
   gradientUnits="userSpaceOnUse">
			<stop
   offset="0.1739"
   style="stop-color:#FFF55B"
   id="stop87" />
			<stop
   offset="1"
   style="stop-color:#FF7900"
   id="stop88" />
		</radialGradient>
		<path
   style="fill:#d61000;fill-opacity:1"
   d="m 122.657,30.147 c -1.809,0.638 -3.597,0.689 -4.548,2.224 -0.052,-0.519 -0.19,-1.013 -0.539,-1.493 -0.107,-0.243 -0.268,-0.474 -0.505,-0.686 0.298,0.295 -0.163,1.509 -0.326,1.83 -0.45,0.884 -1.465,1.543 -2.405,2.136 -0.977,0.617 -1.547,1.48 -1.454,2.436 0.074,0.801 0.963,1.461 1.859,1.896 0.909,1.013 2.905,1.086 4.095,0.237 1.108,-0.792 1.588,-1.937 1.598,-3.075 0.017,-2.166 0.384,-3.817 2.257,-5.523 -0.007,0.005 -0.017,0.011 -0.032,0.018 z"
   id="path88" />
		
			<radialGradient
   id="SVGID_00000011712603022038787170000017304543530434157449_"
   cx="131.8773"
   cy="50.211201"
   r="10.0835"
   gradientTransform="matrix(1.3283,-0.0027,-0.0027,1,-14.7896,0.2711)"
   gradientUnits="userSpaceOnUse">
			<stop
   offset="0"
   style="stop-color:#FFFDD8"
   id="stop89" />
			<stop
   offset="0.4458"
   style="stop-color:#FFF55B"
   id="stop90" />
			<stop
   offset="1"
   style="stop-color:#FF7900"
   id="stop91" />
		</radialGradient>
		<path
   style="fill:#d61000;fill-opacity:1"
   d="m 169.687,49.166 c -0.28,0.029 -0.539,0.079 -0.787,0.143 -0.015,-0.013 -0.032,-0.025 -0.06,-0.025 -1.72,0.032 -3.359,0.869 -4.337,1.994 -0.133,-1.018 -0.785,-2.002 -1.881,-2.548 -0.01,-0.015 -0.024,-0.033 -0.035,-0.048 -0.02,-0.027 -0.08,-0.002 -0.064,0.025 1.035,2.088 -1.116,3.367 -2.563,4.926 -0.835,0.908 -1.409,2.08 -1.454,3.183 -0.048,1.151 0.446,2.172 1.747,2.824 1.484,0.747 3.563,0.536 4.794,-0.406 0.027,-0.022 0.045,-0.045 0.058,-0.068 0.933,-0.674 1.275,-2.073 1.213,-2.943 -0.205,-2.728 0.051,-5.362 3.438,-6.917 0.088,-0.04 0.032,-0.153 -0.069,-0.14 z"
   id="path91" />
		
			<radialGradient
   id="SVGID_00000005224914078503215820000011192238917329273765_"
   cx="134.8643"
   cy="28.4324"
   r="11.6999"
   gradientTransform="matrix(1.3283,-0.0027,-0.0027,1,-14.7896,0.2711)"
   gradientUnits="userSpaceOnUse">
			<stop
   offset="0"
   style="stop-color:#FFFDD8"
   id="stop92" />
			<stop
   offset="0.4458"
   style="stop-color:#FFF55B"
   id="stop93" />
			<stop
   offset="1"
   style="stop-color:#FF7900"
   id="stop94" />
		</radialGradient>
		<path
   style="fill:#d61000;fill-opacity:1"
   d="m 169.011,28.929 c -0.01,-0.008 -0.015,-0.018 -0.024,-0.028 -0.006,-0.01 -0.021,-0.012 -0.03,-0.015 -0.085,-0.07 -0.173,-0.14 -0.266,-0.207 -0.051,-0.035 -0.148,0.013 -0.115,0.063 0.155,0.238 0.315,0.44 0.438,0.656 0.245,1.381 -1.983,2.265 -2.71,3.486 -0.093,0.15 -0.173,0.336 -0.241,0.534 -0.346,-0.733 -0.992,-1.398 -1.832,-1.846 -0.233,-0.158 -0.524,-0.282 -0.875,-0.365 -0.07,-0.016 -0.148,0.054 -0.075,0.092 1.918,0.995 0.845,2.316 -0.078,3.52 -0.646,0.841 -1.1,1.772 -0.85,2.746 0.366,1.404 3.177,2.348 4.748,1.564 1.689,-0.349 2.241,-2.952 2.166,-3.924 -0.05,-0.695 -0.256,-1.379 -0.318,-2.076 -0.072,-0.808 0.432,-1.399 0.704,-2.137 0.29,-0.794 0.025,-1.48 -0.642,-2.063 z"
   id="path94" />
		
			<radialGradient
   id="SVGID_00000125562969255568956670000018247816739773658044_"
   cx="163.3553"
   cy="32.358398"
   r="11.1417"
   gradientTransform="matrix(1.3283,-0.0027,-0.0027,1,-14.7896,0.2711)"
   gradientUnits="userSpaceOnUse">
			<stop
   offset="0.1739"
   style="stop-color:#FFF55B"
   id="stop95" />
			<stop
   offset="1"
   style="stop-color:#FF7900"
   id="stop96" />
		</radialGradient>
		<path
   style="fill:#d61000;fill-opacity:1"
   d="m 204.94,39.249 c -0.128,-1.128 -0.77,-2.15 -1.806,-2.962 -1.734,-1.36 -2.87,-2.323 -2.77,-4.311 0,-0.022 -0.028,-0.027 -0.053,-0.022 0.01,-0.027 0.018,-0.053 0.027,-0.08 0.005,-0.013 -0.025,-0.022 -0.037,-0.01 -0.702,0.854 -1.043,1.661 -1.099,2.667 -0.025,0.5 0.358,0.993 0.582,1.442 0.138,0.278 0.205,0.546 0.223,0.81 -0.221,-0.712 -0.757,-1.353 -1.574,-1.543 -0.233,-0.125 -0.517,-0.197 -0.86,-0.187 -0.077,0.002 -0.104,0.098 -0.024,0.118 0.296,0.07 0.531,0.165 0.709,0.28 0.081,0.065 0.158,0.13 0.233,0.19 0.83,0.87 -0.394,2.467 -0.88,3.308 -0.398,0.686 -0.426,1.613 0.048,2.276 0.729,1.024 2.326,1.56 3.75,1.289 0.867,0.266 1.662,0.039 2.457,-0.511 1.036,-0.719 1.185,-1.759 1.074,-2.754 z"
   id="path96" />
		
			<radialGradient
   id="SVGID_00000040571357511111346710000009808849404403709316_"
   cx="176.586"
   cy="28.633699"
   r="12.4133"
   gradientTransform="matrix(1.3283,-0.0027,-0.0027,1,-14.7896,0.2711)"
   gradientUnits="userSpaceOnUse">
			<stop
   offset="0.1739"
   style="stop-color:#FFF55B"
   id="stop97" />
			<stop
   offset="1"
   style="stop-color:#FF7900"
   id="stop98" />
		</radialGradient>
		<path
   style="fill:#d61000;fill-opacity:1"
   d="m 225.515,32.47 c -0.84,-1.295 -2.705,-1.764 -2.886,-3.328 0.002,-0.095 0.008,-0.188 0.008,-0.283 0.005,-0.1 -0.186,-0.09 -0.219,-0.005 -0.278,0.783 -0.482,1.688 -0.143,2.482 0.181,0.421 0.424,0.822 0.632,1.234 0.075,0.148 0.107,0.293 0.128,0.436 -0.422,-0.46 -0.995,-0.835 -1.324,-1.341 -0.042,-0.181 -0.09,-0.365 -0.135,-0.553 -0.013,-0.048 -0.098,-0.053 -0.113,-0.003 -0.024,0.076 -0.03,0.151 -0.048,0.223 -0.045,0.015 -0.082,0.043 -0.08,0.085 0.005,0.05 0.022,0.093 0.033,0.141 -0.03,0.198 -0.048,0.398 -0.053,0.609 -0.033,0.93 -0.449,1.453 -1.196,2.131 -0.739,0.671 -1.01,1.401 -0.864,2.255 0.15,0.895 1.742,2.124 3,1.875 2.297,0.566 3.598,-1.78 3.858,-3.135 0.189,-0.962 -0.035,-1.957 -0.598,-2.823 z"
   id="path98" />
		
			<radialGradient
   id="SVGID_00000080891631646699004050000017475032546250092194_"
   cx="184.2164"
   cy="42.8326"
   r="11.5753"
   gradientTransform="matrix(1.3283,-0.0027,-0.0027,1,-14.7896,0.2711)"
   gradientUnits="userSpaceOnUse">
			<stop
   offset="0.0413"
   style="stop-color:#FFF55B"
   id="stop99" />
			<stop
   offset="0.4142"
   style="stop-color:#FF7900"
   id="stop100" />
			<stop
   offset="0.9575"
   style="stop-color:#A90900"
   id="stop101" />
		</radialGradient>
		<path
   style="fill:#d61000;fill-opacity:1"
   d="m 232.438,48.676 c -0.313,-1.838 -1.567,-3.03 -3.683,-3.73 -0.339,-0.234 -0.773,-0.413 -1.304,-0.499 -0.061,-0.01 -0.1,0.055 -0.05,0.083 2.772,1.446 0.599,3.228 0.19,5.084 -0.133,0.597 0.168,1.143 0.592,1.625 0.812,0.924 1.829,1.35 2.018,2.563 0.027,0.175 0.379,0.242 0.469,0.059 0.045,-0.093 0.078,-0.186 0.103,-0.276 1.813,-1.267 1.963,-3.158 1.665,-4.909 z"
   id="path101" />
		
			<linearGradient
   id="SVGID_00000075147826098244426940000006642720478459326898_"
   gradientUnits="userSpaceOnUse"
   x1="39.137299"
   y1="115.9491"
   x2="39.137299"
   y2="142.9696"
   gradientTransform="matrix(1.3283,-0.011,0.0083,1,-11.9016,-12.2105)">
			<stop
   offset="0.0413"
   style="stop-color:#FFF55B"
   id="stop102" />
			<stop
   offset="0.3482"
   style="stop-color:#BFD238"
   id="stop103" />
			<stop
   offset="0.9711"
   style="stop-color:#6E4B45"
   id="stop104" />
		</linearGradient>
		<path
   style="fill:#d61000;fill-opacity:1"
   d="m 81.241,122.997 c -0.235,-0.068 -0.471,-0.118 -0.709,-0.161 -0.012,-0.05 -0.048,-0.098 -0.128,-0.125 -4.01,-1.389 -8.862,-1.313 -12.521,0.486 0.921,-0.872 1.859,-1.712 2.989,-2.484 0.686,-0.469 1.416,-0.9 2.145,-1.331 0.938,-0.557 2.188,-0.817 3.24,-1.233 0.193,-0.075 0.3,-0.341 0.021,-0.406 -3.032,-0.709 -6.475,0.261 -9.359,1 -1.635,0.419 -3.269,1.003 -4.705,1.771 0.225,-0.236 0.445,-0.474 0.687,-0.705 1.398,-1.363 2.785,-2.96 4.658,-3.971 0.333,-0.181 0.052,-0.576 -0.332,-0.474 -2.878,0.789 -5.284,2.283 -7.871,3.482 -0.966,0.445 -2.056,0.932 -2.995,1.523 2.021,-3.492 4.325,-6.839 8.209,-9.431 0.154,-0.103 -0.01,-0.286 -0.187,-0.198 -0.065,0.033 -0.123,0.068 -0.187,0.103 -3.809,0.943 -7.635,2.999 -10.533,5.057 -1.409,1.001 -2.997,2.254 -4.236,3.638 0.337,-2.105 0.147,-4.312 -0.277,-6.27 -0.337,-1.557 -0.991,-3.021 -1.752,-4.485 -0.623,-1.193 -1.465,-2.456 -2.887,-3.219 -0.102,-0.055 -0.203,0.045 -0.121,0.11 0.586,0.456 1.012,0.965 1.359,1.499 1.873,3.956 -0.033,8.398 -3.239,11.863 0.342,-0.697 0.627,-1.407 0.9,-2.066 0.67,-1.634 1.569,-3.419 1.358,-5.148 0.009,-0.15 0.011,-0.301 -0.005,-0.457 -0.005,-0.055 -0.05,-0.085 -0.103,-0.104 -0.04,-0.146 -0.086,-0.291 -0.146,-0.437 -0.031,-0.08 -0.203,-0.05 -0.188,0.03 0.029,0.165 0.044,0.336 0.051,0.501 v 0 c -0.57,2.364 -3.15,3.871 -5.105,5.618 -0.944,0.84 -1.675,1.782 -2.115,2.785 0.137,-0.928 0.451,-1.855 0.845,-2.775 0.945,-2.208 1.858,-4.234 2.011,-6.54 0.024,-0.051 0.055,-0.101 0.078,-0.153 0.025,-0.058 -0.01,-0.103 -0.062,-0.128 0.004,-0.083 0.014,-0.163 0.014,-0.243 10e-4,-0.082 -0.169,-0.082 -0.183,-0.002 -0.023,0.115 -0.057,0.226 -0.081,0.341 -1.753,2.792 -5.074,4.598 -7.703,6.898 -0.646,0.567 -1.273,1.187 -1.8,1.846 0.096,-0.276 0.2,-0.552 0.321,-0.83 0.643,-1.497 1.355,-2.953 1.813,-4.495 0.919,-3.096 1.014,-6.237 0.228,-9.351 -0.02,-0.085 -0.186,-0.101 -0.204,-0.005 -0.106,0.506 -0.134,1.027 -0.138,1.549 -0.883,3.641 -3.279,6.568 -5.618,9.768 -0.842,1.153 -2.159,2.867 -2.515,4.482 -0.314,-2.096 0.102,-4.164 0.77,-6.213 0.009,-0.025 0,-0.045 -0.012,-0.06 0.002,-0.01 0.01,-0.016 0.012,-0.025 0.065,-0.095 -0.125,-0.183 -0.212,-0.095 -0.457,0.456 -0.863,0.942 -1.241,1.446 -1.389,1.058 -2.142,2.424 -2.511,3.878 0.005,-0.469 0.026,-0.942 0.083,-1.422 0.198,-1.679 0.688,-3.336 1.282,-4.958 0.609,-1.662 1.474,-3.241 2.447,-4.801 0.495,-0.797 0.975,-1.614 1.628,-2.347 0.603,-0.674 1.348,-1.278 1.973,-1.945 0.104,-0.11 -0.089,-0.223 -0.212,-0.13 -0.139,0.103 -0.27,0.205 -0.401,0.311 -0.03,-0.015 -0.063,-0.021 -0.102,-0.01 -2.574,0.661 -4.582,2.421 -6.414,3.865 -2.131,1.68 -4.046,3.507 -5.587,5.521 -1.384,1.805 -2.446,3.76 -2.848,5.82 -0.022,0.101 -0.042,0.206 -0.063,0.312 -0.137,-1.422 -0.038,-2.855 0.146,-4.272 0.325,-2.496 0.864,-5.324 2.963,-7.367 0.104,-0.101 -0.086,-0.213 -0.2,-0.123 -0.087,0.07 -0.167,0.146 -0.251,0.221 -0.041,-0.03 -0.108,-0.04 -0.159,0.005 -2.276,1.936 -3.867,4.292 -5.035,6.704 -0.55,1.133 -1.07,2.376 -1.414,3.642 -0.054,-0.155 -0.101,-0.311 -0.163,-0.463 -0.809,-2.054 -2.26,-3.996 -4.257,-5.53 -0.336,-0.304 -0.699,-0.597 -1.098,-0.868 -0.045,-0.035 -0.119,0.016 -0.079,0.056 0.072,0.065 0.137,0.135 0.206,0.205 -0.021,0.016 -0.031,0.046 -0.006,0.07 0.367,0.374 0.718,0.752 1.059,1.128 1.806,2.435 2.164,5.317 1.376,8.093 -0.461,1.627 -1.418,3.164 -2.725,4.497 -0.57,0.582 -1.288,1.051 -2.024,1.499 l 0.029,0.875 0.096,3.023 66.247,-0.552 1.203,-0.01 c 0.129,-0.286 0.268,-0.569 0.44,-0.847 0.73,-1.174 1.805,-2.209 3.063,-3.089 2.318,-1.62 5.729,-3.036 8.952,-2.888 0.209,0.006 0.334,-0.214 0.117,-0.279 z"
   id="path104" />
		
			<linearGradient
   id="SVGID_00000165949733421775051900000008184129283290972842_"
   gradientUnits="userSpaceOnUse"
   x1="53.2258"
   y1="116.0648"
   x2="53.2258"
   y2="143.0873"
   gradientTransform="matrix(1.3283,-0.011,0.0083,1,-11.9016,-12.2105)">
			<stop
   offset="0.0413"
   style="stop-color:#FFF55B"
   id="stop105" />
			<stop
   offset="0.3482"
   style="stop-color:#BFD238"
   id="stop106" />
			<stop
   offset="0.9711"
   style="stop-color:#6E4B45"
   id="stop107" />
		</linearGradient>
		<path
   style="fill:#d61000;fill-opacity:1"
   d="m 99.956,122.959 c -0.235,-0.07 -0.471,-0.12 -0.709,-0.16 -0.011,-0.051 -0.047,-0.098 -0.128,-0.125 -4.01,-1.39 -8.861,-1.314 -12.521,0.486 0.922,-0.875 1.86,-1.715 2.989,-2.484 0.686,-0.469 1.417,-0.903 2.145,-1.332 0.939,-0.557 2.189,-0.819 3.24,-1.233 0.193,-0.075 0.3,-0.341 0.021,-0.405 -3.032,-0.71 -6.474,0.258 -9.359,1 -1.635,0.418 -3.269,1.003 -4.705,1.77 0.226,-0.235 0.446,-0.471 0.687,-0.707 1.399,-1.361 2.785,-2.958 4.659,-3.968 0.332,-0.181 0.052,-0.579 -0.332,-0.475 -2.879,0.79 -5.285,2.281 -7.873,3.479 -0.965,0.449 -2.055,0.933 -2.993,1.524 2.021,-3.489 4.323,-6.839 8.209,-9.431 0.154,-0.101 -0.011,-0.286 -0.187,-0.195 -0.065,0.032 -0.123,0.067 -0.188,0.1 -3.808,0.943 -7.635,2.999 -10.532,5.06 -1.409,1 -2.997,2.254 -4.237,3.635 0.338,-2.105 0.148,-4.31 -0.276,-6.268 -0.338,-1.559 -0.992,-3.023 -1.754,-4.484 -0.622,-1.196 -1.464,-2.457 -2.886,-3.222 -0.102,-0.053 -0.203,0.05 -0.12,0.113 0.587,0.456 1.012,0.965 1.358,1.499 1.873,3.953 -0.032,8.398 -3.238,11.862 0.342,-0.699 0.627,-1.406 0.899,-2.068 0.671,-1.634 1.569,-3.417 1.357,-5.148 0.009,-0.15 0.012,-0.299 -0.005,-0.454 -0.005,-0.056 -0.05,-0.088 -0.102,-0.105 -0.04,-0.147 -0.087,-0.293 -0.146,-0.438 -0.031,-0.08 -0.203,-0.051 -0.187,0.035 0.028,0.165 0.043,0.331 0.051,0.496 0,0 0,0 0,0.005 -0.57,2.361 -3.151,3.868 -5.105,5.615 -0.943,0.843 -1.674,1.783 -2.114,2.788 0.137,-0.933 0.451,-1.858 0.845,-2.777 0.945,-2.209 1.857,-4.237 2.011,-6.541 0.023,-0.05 0.055,-0.1 0.076,-0.152 0.026,-0.058 -0.009,-0.104 -0.06,-0.131 0.002,-0.08 0.014,-0.16 0.014,-0.24 0.001,-0.083 -0.171,-0.083 -0.184,-0.005 -0.022,0.115 -0.056,0.226 -0.081,0.341 -1.752,2.792 -5.074,4.6 -7.702,6.898 -0.646,0.566 -1.274,1.189 -1.8,1.848 0.096,-0.275 0.201,-0.552 0.321,-0.83 0.643,-1.499 1.355,-2.953 1.812,-4.494 0.92,-3.097 1.015,-6.24 0.229,-9.354 -0.02,-0.083 -0.187,-0.098 -0.205,-0.005 -0.104,0.509 -0.135,1.027 -0.138,1.549 -0.884,3.641 -3.279,6.568 -5.618,9.77 -0.842,1.151 -2.159,2.865 -2.515,4.48 -0.316,-2.097 0.102,-4.162 0.77,-6.213 0.009,-0.024 0,-0.045 -0.012,-0.06 0.002,-0.005 0.01,-0.016 0.012,-0.021 0.065,-0.098 -0.125,-0.186 -0.211,-0.101 -0.458,0.459 -0.864,0.945 -1.242,1.449 -1.388,1.059 -2.141,2.427 -2.51,3.876 0.005,-0.466 0.026,-0.942 0.083,-1.419 0.198,-1.68 0.688,-3.337 1.282,-4.959 0.609,-1.664 1.474,-3.241 2.447,-4.803 0.495,-0.797 0.975,-1.614 1.628,-2.344 0.603,-0.675 1.348,-1.279 1.973,-1.948 0.104,-0.11 -0.089,-0.221 -0.212,-0.13 -0.139,0.104 -0.27,0.208 -0.401,0.311 -0.03,-0.013 -0.063,-0.021 -0.101,-0.01 -2.574,0.661 -4.582,2.424 -6.414,3.87 -2.131,1.675 -4.046,3.505 -5.588,5.516 -1.383,1.805 -2.445,3.763 -2.848,5.826 -0.021,0.1 -0.041,0.2 -0.062,0.306 -0.137,-1.419 -0.038,-2.854 0.146,-4.27 0.325,-2.497 0.864,-5.327 2.963,-7.368 0.104,-0.1 -0.086,-0.213 -0.199,-0.122 -0.087,0.07 -0.167,0.145 -0.251,0.218 -0.041,-0.03 -0.108,-0.038 -0.159,0.005 -2.276,1.936 -3.867,4.292 -5.035,6.703 -0.55,1.134 -1.07,2.377 -1.414,3.646 -0.054,-0.155 -0.101,-0.311 -0.163,-0.464 -0.809,-2.053 -2.26,-3.998 -4.257,-5.53 -0.336,-0.304 -0.7,-0.597 -1.098,-0.87 -0.045,-0.032 -0.119,0.018 -0.079,0.056 0.072,0.067 0.137,0.138 0.206,0.205 -0.021,0.018 -0.031,0.046 -0.006,0.07 0.366,0.376 0.718,0.752 1.059,1.131 1.806,2.435 2.165,5.317 1.376,8.092 -0.461,1.625 -1.419,3.161 -2.725,4.495 -0.57,0.584 -1.289,1.051 -2.026,1.502 l 0.03,0.875 0.096,3.023 66.247,-0.555 1.203,-0.01 c 0.129,-0.286 0.268,-0.569 0.439,-0.845 0.731,-1.176 1.806,-2.209 3.063,-3.089 2.319,-1.619 5.729,-3.035 8.952,-2.891 0.208,0.011 0.333,-0.21 0.115,-0.275 z"
   id="path107" />
		<path
   style="opacity:0.7;fill:#d61000;fill-opacity:1"
   d="m 149.287,129.69 c 0,0 1.829,-5.45 -1.858,-8.403 0,0 2.475,0.286 3.693,3.643 0,0 1.072,-4.295 0.29,-6.127 0,0 2.066,2.662 1.921,5.649 0,0 2.091,-4.761 5.996,-6.25 0,0 -1.86,1.853 -1.659,5.372 0,0 3.028,-4.771 10.173,-5.826 0,0 -3.64,2.633 -3.788,5.313 0,0 2.785,-3.006 8.576,-3.593 0,0 -5.681,3.417 -4.77,10.374 z"
   id="path108" />
		
			<linearGradient
   id="SVGID_00000036931828745157792920000009132982925936993678_"
   gradientUnits="userSpaceOnUse"
   x1="156.53191"
   y1="132.6268"
   x2="156.53191"
   y2="143.8645"
   gradientTransform="matrix(1,-0.0083,0.0083,1,2.4364,-12.661)">
			<stop
   offset="0.0413"
   style="stop-color:#FFF55B"
   id="stop108" />
			<stop
   offset="0.3482"
   style="stop-color:#BFD238"
   id="stop109" />
			<stop
   offset="0.9711"
   style="stop-color:#6E4B45"
   id="stop110" />
		</linearGradient>
		<path
   style="fill:#d61000;fill-opacity:1"
   d="m 151.127,129.695 c 0,0 1.521,-5.064 -1.56,-7.812 0,0 2.065,0.269 3.089,3.39 0,0 0.89,-3.991 0.235,-5.693 0,0 1.728,2.474 1.609,5.252 0,0 1.74,-4.428 5.001,-5.804 0,0 -1.552,1.72 -1.381,4.988 0,0 2.524,-4.43 8.491,-5.404 0,0 -3.039,2.444 -3.162,4.934 0,0 2.327,-2.793 7.16,-3.332 0,0 -4.74,3.172 -3.976,9.637 z"
   id="path110" />
		<path
   style="opacity:0.7;fill:#d61000;fill-opacity:1"
   d="m 87.161,129.991 c 0,0 0.64,-5.335 -4.163,-7.226 0,0 3.646,-0.26 5.351,3.818 0,0 -0.567,-4.319 -2.704,-5.307 0,0 3.727,0.2 5.13,4.359 l 1.098,-5.029 1.18,4.778 c 0,0 0.654,-3.558 2.384,-5.81 0,0 0.105,3.475 1.264,5.78 0,0 0.354,-3.171 3.449,-5.746 0,0 -0.514,2.247 0.039,4.714 0,0 4.282,-5.984 9.231,-4.866 0,0 -2.194,1.022 -2.856,3.73 0,0 2.259,-2.567 6.37,-1.675 0,0 -5.836,1.902 -5.704,8.621 z"
   id="path111" />
		
			<linearGradient
   id="SVGID_00000099653715737062416120000009983272577044265642_"
   gradientUnits="userSpaceOnUse"
   x1="95.363197"
   y1="133.70081"
   x2="95.363197"
   y2="143.65581"
   gradientTransform="matrix(1,-0.0083,0.0083,1,2.4364,-12.661)">
			<stop
   offset="0.0413"
   style="stop-color:#FFF55B"
   id="stop111" />
			<stop
   offset="0.3482"
   style="stop-color:#BFD238"
   id="stop112" />
			<stop
   offset="0.9711"
   style="stop-color:#6E4B45"
   id="stop113" />
		</linearGradient>
		<path
   style="fill:#d61000;fill-opacity:1"
   d="m 88.818,130.004 c 0,0 0.6,-4.914 -3.897,-6.656 0,0 3.413,-0.24 5.01,3.515 0,0 -0.531,-3.979 -2.532,-4.886 0,0 3.488,0.183 4.8,4.014 l 1.029,-4.633 1.105,4.402 c 0,0 0.611,-3.277 2.23,-5.356 0,0 0.098,3.201 1.183,5.327 0,0 0.332,-2.92 3.228,-5.292 0,0 -0.48,2.068 0.036,4.34 0,0 4.009,-5.511 8.64,-4.482 0,0 -2.054,0.942 -2.673,3.437 0,0 2.114,-2.366 5.962,-1.544 0,0 -5.462,1.752 -5.339,7.942 z"
   id="path113" />
	</g>
</g><text
       xml:space="preserve"
       id="text1"
       style="font-size:400px;text-align:start;writing-mode:lr-tb;direction:ltr;white-space:pre;shape-inside:url(#rect2);fill:#ffffff;fill-opacity:1"
       x="373.5"
       y="0"
       transform="translate(-240.36373,-151.41023)"><tspan
         x="1010.7471"
         y="814.91923"
         id="tspan3"><tspan
           style="font-stretch:condensed;font-family:Impact;-inkscape-font-specification:'Impact Condensed';text-align:center;text-anchor:middle"
           id="tspan1">VS</tspan></tspan></text><path
       d="m 1841.4057,433.74516 -61.5116,-232.14846 -229.7076,62.22894 -33.9831,60.61248 -68.8394,-0.50229 -168.052,169.94692 168.07,169.90126 68.9384,-0.52055 34.0281,60.61248 229.5546,62.19241 61.5026,-232.1302 -34.9283,-60.10106 z M 1697.3715,288.53822 1596.6915,465.161 h -201.5759 l 126.8761,-130.96022 z m -100.68,234.02062 100.788,176.60452 -175.6048,-45.77215 -126.8852,-130.78671 h 201.576 z m 49.2237,-28.67609 100.788,-176.62278 48.7286,176.62278 -48.7286,176.57713 z"
       fill="#222c37"
       id="path1-4"
       style="fill:#ffffff;fill-opacity:1;stroke-width:9.06709" /><g
       style="fill:#ffffff;fill-opacity:1"
       id="g1"
       transform="matrix(17.663309,0,0,17.015476,92.014592,242.40381)"><path
         d="M 16,0 C 7.234,0 0.135,7.161 0.135,16 c 0,8.839 7.099,16 15.865,16 8.76,0 15.865,-7.161 15.865,-16 0,-8.839 -7.104,-16 -15.87,-16 z m 0,0.703 c 4.047,0 7.859,1.594 10.724,4.479 2.859,2.875 4.453,6.766 4.443,10.818 0,4.083 -1.578,7.927 -4.443,10.818 C 23.896,29.688 20.031,31.302 16,31.297 11.969,31.302 8.104,29.688 5.276,26.818 2.417,23.943 0.818,20.052 0.828,16 0.828,11.917 2.411,8.073 5.271,5.182 8.099,2.307 11.969,0.692 16,0.703 Z m -0.797,5.63 c -2.583,0.693 -4.974,2.021 -8.161,5.677 -3.187,3.656 -2.583,6.677 -2.583,6.677 0,0 0.88,-2.078 2.995,-4.266 1.005,-1.036 1.75,-1.385 2.266,-1.385 0.458,-0.026 0.844,0.344 0.844,0.802 v 7.422 c 0,0.734 -0.474,0.896 -0.911,0.885 C 9.283,22.14 8.939,22.01 8.939,22.01 c 2.172,3.156 7.37,3.599 7.37,3.599 l 2.281,-2.438 0.052,0.047 2.089,1.781 c 3.823,-2.271 5.667,-6.479 5.667,-6.479 -1.708,1.802 -2.792,2.224 -3.438,2.224 -0.573,-0.005 -0.797,-0.339 -0.797,-0.339 -0.031,-0.156 -0.083,-2.417 -0.104,-4.677 -0.021,-2.339 0,-4.682 0.115,-4.688 C 22.835,9.8 24.94,7.3 24.94,7.3 c -3.932,0.776 -6.073,3.354 -6.073,3.354 -0.635,-0.5 -1.927,-0.417 -1.927,-0.417 0.604,0.333 1.208,1.302 1.208,2.104 v 7.896 c 0,0 -1.318,1.161 -2.333,1.161 -0.604,0 -0.974,-0.328 -1.177,-0.599 C 14.56,20.695 14.492,20.58 14.44,20.455 v -9.75 c -0.141,0.104 -0.313,0.161 -0.484,0.167 -0.219,0 -0.443,-0.109 -0.594,-0.427 -0.115,-0.24 -0.188,-0.599 -0.188,-1.125 0,-1.797 2.031,-2.99 2.031,-2.99 z"
         id="path1"
         style="fill:#ffffff;fill-opacity:1" /></g></g></svg>
